<svg id="Calque_1" data-name="Calque 1" xmlns="http://www.w3.org/2000/svg" viewBox="0 0 458.36 490"><defs><style>.cls-1{fill:#783d16;}.cls-2{fill:#583517;}.cls-3{fill:#eec85d;}.cls-4{fill:#ebbf56;}.cls-5{fill:#935524;}.cls-6{fill:#ac682b;}.cls-7{fill:#e7b957;}.cls-8{fill:#4f2e1a;}.cls-9{fill:#c6933e;}.cls-10{fill:#441d10;}.cls-11{fill:#643824;}.cls-12{fill:#c7944e;}.cls-13{fill:#d1aa56;}.cls-14{fill:#674319;}.cls-15{fill:#bd893b;}.cls-16{fill:#3b1803;}.cls-17{fill:#82430e;}.cls-18{fill:#59371a;}.cls-19{fill:#593519;}.cls-20{fill:#79512a;}.cls-21{fill:#734d21;}.cls-22{fill:#582e1f;}.cls-23{fill:#3c210e;}.cls-24{fill:#5d3918;}.cls-25{fill:#492c13;}.cls-26{fill:#54331c;}.cls-27{fill:#54311b;}.cls-28{fill:#4e240e;}.cls-29{fill:#674229;}.cls-30{fill:#734837;}.cls-31{fill:#69441b;}.cls-32{fill:#5d392d;}.cls-33{fill:#5e4438;}.cls-34{fill:#755d36;}.cls-35{fill:#4c2c14;}.cls-36{fill:#704b26;}.cls-37{fill:#674d34;}.cls-38{fill:#241009;}.cls-39{fill:#75571e;}.cls-40{fill:#532505;}.cls-41{fill:#7c5d44;}.cls-42{fill:#c09979;}.cls-43{fill:#1d0a06;}.cls-44{fill:#140508;}.cls-45{fill:#331a13;}.cls-46{fill:#81573d;}.cls-47{fill:#5c0f06;}.cls-48{fill:#8e2424;}.cls-49{fill:#602212;}.cls-50{fill:#63170a;}.cls-51{fill:#ecc55c;}.cls-52{fill:#921f21;}.cls-53{fill:#d8b36f;}.cls-54{fill:#5d241e;}.cls-55{fill:#591818;}.cls-56{fill:#563e1c;}.cls-57{fill:#523f28;}.cls-58{fill:#593e28;}.cls-59{fill:#674628;}.cls-60{fill:#4e2512;}.cls-61{fill:#5e3b21;}.cls-62{fill:#551704;}.cls-63{fill:#653a1e;}.cls-64{fill:#43311b;}.cls-65{fill:#f8e386;}.cls-66{fill:#9b5b26;}.cls-67{fill:#a86527;}.cls-68{fill:#f4d97b;}.cls-69{fill:#a5642b;}.cls-70{fill:#f1da9a;}.cls-71{fill:#43180b;}.cls-72{fill:#fbeeb1;}.cls-73{fill:#f6e6a3;}.cls-74{fill:#c9983e;}.cls-75{fill:#ac703b;}.cls-76{fill:#4f2000;}.cls-77{fill:#4d2509;}.cls-78{fill:#f9e9a2;}.cls-79{fill:#cf9248;}.cls-80{fill:#d49723;}.cls-81{fill:#f0cd65;}.cls-82{fill:#723916;}.cls-83{fill:#e6bc6e;}.cls-84{fill:#d29a38;}.cls-85{fill:#cd9832;}.cls-86{fill:#c99c3a;}.cls-87{fill:#b6902e;}.cls-88{fill:#fceea1;}.cls-89{fill:#ae7a18;}.cls-90{fill:#561e05;}.cls-91{fill:#c9a039;}.cls-92{fill:#ba9429;}.cls-93{fill:#e9caa0;}.cls-94{fill:#f8e589;}.cls-95{fill:#8a4e21;}.cls-96{fill:#451b0c;}.cls-97{fill:#e5b140;}.cls-98{fill:#681706;}.cls-99{fill:#5f1c09;}.cls-100{fill:#6b1c09;}.cls-101{fill:#e7b340;}.cls-102{fill:#cca87c;}.cls-103{fill:#fde497;}.cls-104{fill:#f5deae;}.cls-105{fill:#ccac7d;}.cls-106{fill:#763f22;}.cls-107{fill:#4e220a;}.cls-108{fill:#d49632;}.cls-109{fill:#b7a870;}.cls-110{fill:#fdf6c2;}.cls-111{fill:#dea42b;}.cls-112{fill:#b78a57;}.cls-113{fill:#ae2023;}.cls-114{fill:#e9bd50;}.cls-115{fill:#cd932d;}.cls-116{fill:#ba7e2e;}.cls-117{fill:#cf9b52;}.cls-118{fill:#a21c1f;}.cls-119{fill:#e36569;}.cls-120{fill:#da655f;}.cls-121{fill:#ac2022;}.cls-122{fill:#f6de7f;}.cls-123{fill:#5a1607;}.cls-124{fill:#f9eda9;}.cls-125{fill:#d55f65;}.cls-126{fill:#cd5a5a;}.cls-127{fill:#b12024;}.cls-128{fill:#f6e6a2;}.cls-129{fill:#89251a;}.cls-130{fill:#e76a66;}.cls-131{fill:#c28c46;}.cls-132{fill:#fcf0af;}.cls-133{fill:#c68b3d;}.cls-134{fill:#561006;}.cls-135{fill:#a21d1f;}.cls-136{fill:#d56769;}.cls-137{fill:#360500;}.cls-138{fill:#f8eeae;}.cls-139{fill:#f3d072;}.cls-140{fill:#64140c;}.cls-141{fill:#cca241;}.cls-142{fill:#9a6915;}.cls-143{fill:#4b1909;}.cls-144{fill:#5d1f06;}.cls-145{fill:#fbecac;}.cls-146{fill:#efcf86;}.cls-147{fill:#c19234;}.cls-148{fill:#c28a37;}.cls-149{fill:#cc9438;}.cls-150{fill:#cd9530;}.cls-151{fill:#691608;}.cls-152{fill:#cd9934;}.cls-153{fill:#ca8b39;}.cls-154{fill:#faea9b;}.cls-155{fill:#cd9931;}.cls-156{fill:#f5e598;}.cls-157{fill:#ca9937;}.cls-158{fill:#ecc37b;}.cls-159{fill:#a57c28;}.cls-160{fill:#6e430e;}.cls-161{fill:#feed9d;}.cls-162{fill:#6f1f0a;}.cls-163{fill:#46170d;}.cls-164{fill:#43180e;}.cls-165{fill:#ac6f3d;}.cls-166{fill:#af6f3d;}.cls-167{fill:#b0733c;}.cls-168{fill:#ac733c;}.cls-169{fill:#d19031;}.cls-170{fill:#935e0b;}.cls-171{fill:#ac2425;}.cls-172{fill:#982222;}.cls-173{fill:#a52b2f;}.cls-174{fill:#c3ac7a;}.cls-175{fill:#a77305;}.cls-176{fill:#c58608;}.cls-177{fill:#ed5b5e;}.cls-178{fill:#fdf0aa;}.cls-179{fill:#c78d2a;}.cls-180{fill:#986714;}.cls-181{fill:#7f4f12;}.cls-182{fill:#bd2027;}.cls-183{fill:#9b2928;}.cls-184{fill:#e45862;}.cls-185{fill:#e16c6c;}.cls-186{fill:#880810;}.cls-187{fill:#942b23;}.cls-188{fill:#ac3f3e;}.cls-189{fill:#cf5a59;}.cls-190{fill:#a41e21;}.cls-191{fill:#b02024;}.cls-192{fill:#dd5e67;}.cls-193{fill:#611a05;}.cls-194{fill:#fdea97;}.cls-195{fill:#750608;}.cls-196{fill:#710604;}.cls-197{fill:#d35b5e;}.cls-198{fill:#ee6064;}.cls-199{fill:#840c0f;}.cls-200{fill:#d96a6a;}.cls-201{fill:#e96265;}.cls-202{fill:#94080e;}</style></defs><path class="cls-1" d="M203.16,48.24a6.48,6.48,0,0,0,1.05-5.63c1.1-2.5-.33-5.38,1.2-7.81,10.92,2.81,10.92,2.81,16-3.22a2.06,2.06,0,0,1,1.63.64c2.27,1.77.67,7.55,5.17,6.29,3.58-1,2.17-5.23,2.23-8.25.12-5.94.35-6.34,8.61-19.17-2.34-1.58-5.73.1-7.74-2.45a2.21,2.21,0,0,1,.33-2.45A.79.79,0,0,1,232,5h20.74c2.38,3.95,7.46-.15,10,3.34-.63,6.17-6.64,6.77-10.31,9.65-6.21,4.87-11,10.14-10.51,18.69.2,3.31.92,6.17,4.13,7.82,3.86,2,4.66-1.66,6.51-3.45a2.07,2.07,0,0,1,2.55-.18c1.64,7.55,7.62,9.15,14,10.22,4.46,13.15,16.55,14.8,27.49,18.06,3.37,1,5.15-1.5,6.53-4.1,3.51-6.63,6.68-13.43,11-19.6,3.4-4.83-1.12-5.45-3.92-7.21-3.13-2-9.21-1.09-7.89-7.68,11.12-.42,22.31,1.85,33.37-.85l2,.85c.56,1.71,2.74,2.47,2.68,4.55-.28,2.6-2.17,3.8-4.19,4.9-4,1.47-8,2.87-11,6.12-5.95,6-11.4,12.34-14.33,20.51-1.59,4.44-1.23,7.74,3.41,10.11,4.47,2.29,6.2-.62,8.11-3.6a17.48,17.48,0,0,1,1.67-2.25c2.85-3.19,6.16-8.71,10.29-5.63s-1.58,6.79-3.32,10c-2.41,4.38-5.8,8-1.56,13.44,5.24,6.68,8,7.07,13.4.52,2.22-2.69,4.39-5.31,8.19-5.65,3.53,1.26,3.08,4,1.41,6-7.76,8.87-5.89,15.33,4.21,20.52,1.73.88,3.32,3.16.85,5.4-6.38,2.68-12.22.94-17.91-2.13-10-3.73-13-14.71-21.19-20.33-2.78-2.63-4.92-6-8.61-7.59a6.62,6.62,0,0,1-1.6-1.78c-5.69-1.65-10.69-5-16.42-6.53a18.42,18.42,0,0,1-3.71-1.18c-3.37-2.12-7.22-2.58-11-3.19-4.24-1.5-7.8-4.31-11.85-6.17C257.6,62.64,250.37,58,242,55.9c-12-2.6-23.45-8.39-36.28-6.24A4.23,4.23,0,0,1,203.16,48.24Z" transform="translate(-20.82 -5)"/><path class="cls-2" d="M20.82,427.29c6.15-3.13,6-10.21,9.51-15,1.76-.51,2.51.57,3.1,1.94a8.66,8.66,0,0,1,0,4.11,14.8,14.8,0,0,1-2.1,5.21c-6.57,8.72-5.54,16.75,2,24.3a40.79,40.79,0,0,1,2.45,6.71c.68,6.21,1.83,12.36,2.61,18.56.46,3.64,1.34,7.7-3.34,9.69a3.18,3.18,0,0,1-2.79-.81c-.24-6.55-.74-13.11-.66-19.66.1-8.35-3.29-14.34-10.76-18Z" transform="translate(-20.82 -5)"/><path class="cls-3" d="M324.58,265.39l-.39,11c-3.47,2.92-2.32,10.45-9.43,9.68-7.35-.8-6.39-8-9.18-12.32-7.19,1.33-10.41,8.6-16.89,11.18-3.66,1.47-6.53,4.86-11,4.69-5-.26-6.46-3.22-5.86-7.73,2.76-8,12.26-8.73,16.47-15-4.75,4.49-10,6.93-16.38,2.85-4.22-3.14-12.57-1.66-11.74-10.46a7.93,7.93,0,0,1,.94-2.84c5.75-4,12.9-5,18.76-9.48,3.13-2.38,11.34-4.6,12.51,4.78.11,1.32-1.83,3-.16,3.79,1,.45,1.34-1.58,1.28-2.83-.2-5.36,2.54-8.72,7-11.22,10.6-5.88,19-14.23,26.14-23.92,2.18-3,4.49-5.26,8.46-4.73,4.93.65,7.34-2,9.18-6.19a71.16,71.16,0,0,1,14.9-22.6c2.52-2.5,3.63-5.78,5.06-8.92,3.62-8,6.66-16.31,13.63-22.23,1.9-1.47,3.93-2.44,6.41-1.88,6.22,4,11.72,8.72,14.2,16.07a3.78,3.78,0,0,1-1.08,2.38c-6.93.76-7.82,3.38-2.9,8.46,4.17,4.3,5.56,8.56-1.85,11.26a6.68,6.68,0,0,0-4.07,3.77c-2.62,7.91-8.53,12.36-15.64,15.68-2.19,4.9-6.73,8.2-8.86,13.13a11.83,11.83,0,0,0-.92,4.7c.42,3.66-.61,7.06-3.81,8.74-5.7,3-5.75,8.08-5.94,13.31-.77,1.71-1.71,3.33-2.4,5.08-1.32,3.18,1.46,9.36-3.48,9.31-5.72-.07-5.61-6.54-4.81-10.46,1-5.07-3.13-10.68,1.69-15.17a15.07,15.07,0,0,1,5.78-4.48,16.32,16.32,0,0,0-6.41,4.78c-.49.37-1.28.87-1.2,1.29,1.63,9.09-3.14,14.76-10.11,19.3C329.92,260.6,325.63,261.21,324.58,265.39Z" transform="translate(-20.82 -5)"/><path class="cls-4" d="M352.61,247.77c-2.48-6-2.55-10.86,4.95-13.63,3-1.1,5.94-3.91,2.49-7.88,4.59-5.81,11.13-9.19,16.87-13.52,2-6.38-4.58-1.62-5.45-4.22.32-1.48.84-4.29.95-4.27,10.27,1.45,10.85-7.65,14.42-13.27,2.23-3.51,5.35-5,9.68-5.51-1.28-6.73-11-9.28-8.14-17.59l9.88.7,1,.83c2.56,2.51,2.34,7.18,6.56,8.4a4.56,4.56,0,0,1,3,1.64,17.25,17.25,0,0,1,3.33,5.05,6.48,6.48,0,0,1,0,2.52c-2.14,4.34-6.11,7.07-9.23,10.54-4.86,5.46-7.83,11.2-3.79,18.58,1.38,2.52.49,5.57.68,8.37-6.22,6.81-2.87,14.49-2.09,22,.48,4.55,4,9.78-2.45,13.07-5.17,4.42-10.13,5.5-14.61-.94a.8.8,0,0,1-1.13-.73c-1.31-5.45-1-11.06-1.7-16.53-.49-.88-.65-3-2.08-1.6s-.29,3.56-.27,5.39c.06,4.25-.56,8.32-4.75,10.42-4.47,2.24-6.12-2-8-4.44C359.91,247.58,355.82,249.23,352.61,247.77Z" transform="translate(-20.82 -5)"/><path class="cls-5" d="M358.41,114.14a5.77,5.77,0,0,0-.52-.77c-4.16-4.53-12.63-5.08-13.76-11.68-1-5.94,5-10.21,7.87-15.23.21-.37-.78-1.45-1.21-2.2-3.56-4.26-1-7.43,1.86-10.6,3.11-3.48,6.48-6.7,9.55-10.26a15.6,15.6,0,0,0,4.13-11.84c3.71-5.92,6.64,1.37,10,.6l6.49,5.24a63.62,63.62,0,0,0,14,14.36c2.63,2,5.32,4.4,5.35,8.28C400,85,392.54,84.9,391.66,91.11c-.87,5.85-6.43,7.42-9.89,10.9-4.52,2.35-6.39,7.5-10.61,10.18-1.67,1.34-3.18,2.93-5.28,3.66a11,11,0,0,1-2.67.44C361.33,116.2,359.55,115.88,358.41,114.14Z" transform="translate(-20.82 -5)"/><path class="cls-6" d="M254.82,41.13c-3.72,1.67-.95,5.9-3.23,8.14-14.43-5.36-17.09-18.57-5.42-29.17,5-4.52,11-7.88,16.53-11.76,5.72.29,11.68-.47,16.42,3.9,1.52,2.55,6.87-.25,6.62,4.68-.17,3.49-2.21,5.64-5.45,6.63-4.23,1.3-6.53,4.44-8,8.31a14.09,14.09,0,0,1-8,8.43C261.18,41.21,258.16,43.07,254.82,41.13Z" transform="translate(-20.82 -5)"/><path class="cls-7" d="M237.82,318.21c-1.14,2.31-3.25,1.69-5.15,1.73a51.65,51.65,0,0,0-17.7,10c-10.16,8.46-23.25,11.83-35.16,17.24-2.92-.37-5.81-.8-6.84-4.22,4.79-9.2,15.07-10,22.72-14.86,13.16-4.79,23.28-14.17,34-22.63,5.14-3.07,9.56-7.45,15.74-8.64,6.34.16,12.7-6.93,19,0,.7,2.13-.63,3.86-1.16,5.75-1.22,6,1.49,12.15-.32,18.17-4.4,8.56-5.11,8.79-11.62,3.71-1.19-4,.25-8.25-1.18-12.22C243.8,309.54,242.49,317.36,237.82,318.21Z" transform="translate(-20.82 -5)"/><path class="cls-4" d="M331.9,257.37a19.89,19.89,0,0,1-.49-2.5c8-2.46,11.22-7.59,9.43-15.9-.11-.51,1.75-1.45,2.7-2.19a2.41,2.41,0,0,1,3.34-.13c-6.56,8.38,1.09,16.63-.75,25.06,4.07-2.65,1.31-7.12,4.14-9.76,3.64,5.95-.69,12.93,2.47,18.95l-.07-.25c1.72,6.24.45,12.76,1.83,19,.38,3.88-1,8,1.75,11.55l0,10.95c-1.12,1.91.52,4.71-2,6.17-4.48-1.2-6.18-5.25-8.68-8.48C344,303.47,344.46,296.49,340,291c-1.42-7.82.48-15.8-1.15-23.61C336.73,263.88,335.3,259.94,331.9,257.37Z" transform="translate(-20.82 -5)"/><path class="cls-8" d="M433.4,95.6c11.25,9.93,22.65,19.68,33.65,29.87,4.11,3.81,6.66,9,8.77,14.28,6,15.08,4.45,19.62-8.6,28.68-19,13.2-35.64,29.64-56.06,40.92l-5.69,3.12c-1.89.71-2.32-.45-2.49-1.95.91-2.91,3.23-4.61,5.63-6.05,19.71-11.77,37-26.8,55.21-40.61,10-7.63,10.26-8.57,4.16-20-2.76-6.24-11.43-6-13.86-12.59a6.52,6.52,0,0,1,3.32-1.92c5.67-2.45,1.19-4.25-.59-5.59-8.21-6.2-14.25-14.75-22.75-20.62a7,7,0,0,1-3.24-5.42C431.16,96.32,431.57,95.08,433.4,95.6Z" transform="translate(-20.82 -5)"/><path class="cls-9" d="M179.26,346.33c6.79-4.25,13.63-8.4,21.37-10.75,5.41-1.64,10.64-4.16,14.11-8.41,4.88-6,10.58-8.22,17.93-7.23l-2.09,1.88c-.57.25-1.37.38-1.65.84C220.84,336,206.16,339,193.54,345.12c-4.53,2.21-9,4.34-10.6,9.74-.42,5.26,2,10.57-.24,15.8-7.61,6.51-8.66,6.15-11.82-4.06a29.48,29.48,0,0,1,.05-6.77c3.07-1.67,3.38-.09,3.38,2.48C174.59,356.61,172.13,349.83,179.26,346.33Z" transform="translate(-20.82 -5)"/><path class="cls-10" d="M335.69,29.71c-11,7.08-22.56,3.67-34,1.87-3.31.5-4.89-1.74-4.71-4.27.47-6.36-4.26-7.48-8.46-9.34-1.18-.9-2.47-1.84-1.59-3.56.48-.92,1.45-.69,2.29-.37,4.49.42,8.82,1.37,12.6,4,5,1.09,10,.66,15.05.23C325.59,18,328.19,27.91,335.69,29.71Z" transform="translate(-20.82 -5)"/><path class="cls-11" d="M433.4,95.6c-.55.6-1.1,1.21-1.66,1.81-2.22,1.29-4.66.53-7,.78-3.83.09-7.22,2-10.88,2.64-4.91.89-10.13,2-12.71-4.28,2.53-5.43,8.75-1.7,12.27-4.91-1.57-6.27-8-7.45-11.83-11.26-3.64-5.12-7.65-10-13.62-12.33-5.39-2.1-2.73-7.45-5.11-10.65,1.72.64,3.74.89,5.11,2C403.18,71.37,418.28,83.5,433.4,95.6Z" transform="translate(-20.82 -5)"/><path class="cls-12" d="M34.53,482.14c4.6-4.18,1.51-9.22.9-13.57A96.92,96.92,0,0,1,34,454c-.54-4.89-1.07-9.83-.15-14.65.39-2.07.65-6.74,5-2.94,1.55,6.12.4,12.35.79,18.52.2,3.33-.81,6.89,1.78,9.79-.23,3.79,3.33,6.86,2.08,10.85-.5,3.28,1.81,6.64-.52,9.93-1.89,2.67-2.94,7.33-7.05,5.79S32.32,485.64,34.53,482.14Z" transform="translate(-20.82 -5)"/><path class="cls-13" d="M162.12,389.63a6.94,6.94,0,0,1,0,5.81c-1.19,5.51,2.56,10.51,1.69,16a4.93,4.93,0,0,1-1.43,2.3c-3.39-4.7-7.14,1.36-10.64-.37a11.15,11.15,0,0,1-.94-7.14c1.51-4.54,1.15-9.34,1.88-14,2.33-8,.35-16.21,1.21-24.26.41-3.79-.57-8.64,5.42-9.26,3.81,2.18,1,4.53.17,6.82C159.66,373.64,158,382,162.12,389.63Z" transform="translate(-20.82 -5)"/><path class="cls-14" d="M352.74,270.9c-4.51-5.84-1.42-12.67-2.47-18.95l2.34-4.18c4.94-2.35,8.91-1.49,12,3.25,1.1,1.66,2.15,4.48,4.8,3.56s3.35-3.51,3.29-6.17c-.08-3.11-.44-6.23-.34-9.34.09-2.44,1.5-4.27,4.16-4,2.5.24,4.12,1.52,2.67,4.4-2.78,4.42.14,10.32-3.74,14.45-4.08,6.57-8.26,6.67-12.78.36-1.53-2.13-2.88-5.32-6.39-4.12s-3.66,4.61-3.66,7.77C352.66,262.24,352.71,266.57,352.74,270.9Z" transform="translate(-20.82 -5)"/><path class="cls-15" d="M354.34,317.81c.2-2-.55-4.39,1.94-5.64,5.66,11.29,5.3,18.86-1.25,26.1-6.11-.45-14.3,3-14.79-7.94A3.62,3.62,0,0,1,343.5,328C352.24,330.08,352.1,322.68,354.34,317.81Z" transform="translate(-20.82 -5)"/><path class="cls-16" d="M331.9,257.37c5,.36,5.41,4.94,7.41,8.06,1.22,20.13,3.82,40.21,2.41,60.45-1.25,1.74-.48,5-3.86,5.15q-.5-23.73-1-47.45c-.09-4.35.31-8.73-.15-13-.34-3.15.18-7.16-3.44-8.9-4-1.95-5.92,2.2-8.72,3.74C324.34,260.28,328.92,259.55,331.9,257.37Z" transform="translate(-20.82 -5)"/><path class="cls-17" d="M289.18,14c-2.73,2.44.21,2,1.28,2.53a4.61,4.61,0,0,1-1.59,5c-6.64,6-13.28,12-17.72,20-2.91.13-5.59-.26-7.29-3A13.9,13.9,0,0,0,270.58,30c1.24-3.91,3.61-8.06,7.77-8.68,2.91-.44,4.71-.91,5.58-3.56,1.44-4.4-4.59-2.49-4.81-5.56C282.55,12.42,286.22,11.23,289.18,14Z" transform="translate(-20.82 -5)"/><path class="cls-18" d="M262.6,301.19l1.52-3.92c2.47-7.53,9.73-7.14,15.42-9.33,8-4.27,16.45-7.95,21.93-15.81,3.49-5,3.61-1.26,3.92,1.66l.1.64c-11.56,12.71-29.88,15.68-41.27,28.65A2.86,2.86,0,0,1,262.6,301.19Z" transform="translate(-20.82 -5)"/><path class="cls-19" d="M182.94,354.86c-.23-4.17,1.68-7,5.41-8.72,4.76-2.24,9.31-5,14.23-6.82,8.21-3,16.33-5.65,21-14.06,1.23-2.21,3.65-4.37,7-3.44a44.68,44.68,0,0,1-26.44,20.36C196.25,344.57,188.32,347.83,182.94,354.86Z" transform="translate(-20.82 -5)"/><path class="cls-20" d="M41.46,464.68c-4.87-.46-3.65-4.34-3.71-7.13-.13-6.84.11-13.68.21-20.52,1.12-2.64-1.16-5.78,1.21-8.24a13.15,13.15,0,0,1,9.58-2.93,4.31,4.31,0,0,1,2.44,1.53C39.85,433,41.36,443.6,41.1,453.46,41,457.19,41.33,460.94,41.46,464.68Z" transform="translate(-20.82 -5)"/><path class="cls-21" d="M403.56,210.75l1.91,1.72c-5.69,2.22-2.12,8.82-5.7,12-4.27-10.06-9.4-20.19,2.09-29.13,3.61,2.06,2.09,5.12,1.56,8C402.79,205.84,401.36,208.32,403.56,210.75Z" transform="translate(-20.82 -5)"/><path class="cls-22" d="M376.37,52.16c-3.94,4-5.46-2.53-8.61-2-11-2.14-18.74-10.31-28.33-15-.58-1.53-1.15-3-1.72-4.58A113.41,113.41,0,0,1,376.37,52.16Z" transform="translate(-20.82 -5)"/><path class="cls-23" d="M162.52,411.81c1.33-5.49-4.15-10.82-.39-16.37,1.73,6.89,4,13.62,4.69,20.78.88,9.07-5.34,17-15.77,12.43-.14-1.6.9-2.31,2.13-2.89C160.72,424.07,162.07,418.24,162.52,411.81Z" transform="translate(-20.82 -5)"/><path class="cls-24" d="M146.87,389.87a12,12,0,0,1-1.24-2.41c-3.54-13.57-4.27-13.83-15.3-5.32-2,.59-2.59-.67-2.85-2.29,2.73-5.73,7.07-9.72,13.59-8.69,6.88,1.08,8.66,7,9.63,13a8.33,8.33,0,0,1-.47,3A4.59,4.59,0,0,1,146.87,389.87Z" transform="translate(-20.82 -5)"/><path class="cls-25" d="M305.49,274.43l-.1-.65c3.48-.92,3.24,2,3.62,3.8.75,3.63,2.72,6.63,6.15,7.25,3.91.72,4.53-3.28,5.68-5.95.69-1.61,1.63-2.48,3.35-2.48-1.5,5.3-1,12.84-9.54,11.65C307.29,287,305.56,281,305.49,274.43Z" transform="translate(-20.82 -5)"/><path class="cls-26" d="M103.49,408.4c-1.15,4-1.53,9.1-7.26,8.85-5.18-.23-5.85-4.55-6-8.72a3.52,3.52,0,0,0-3.23-3.74c-2.21.74-2.54-.56-2.48-2.29,3.29-4,6.44-4.36,9.41.34,1.75,1.38-1.08,6.41,4.06,5a10,10,0,0,1,1.72-1.65C101.82,405.57,102.74,406.84,103.49,408.4Z" transform="translate(-20.82 -5)"/><path class="cls-27" d="M34.53,482.14c.22,2.89-1.91,7.54,1.85,8.06,4.21.58,5.2-4.46,6.34-7.85.72-2.14-1.88-4.81.83-6.82,3.41,5.53,1.68,10.64-1.65,15.33-1.75,2.45-4.3,5.07-7.68,3.81-3.08-1.15-2.6-4.53-2.57-7.25a53.25,53.25,0,0,1,.59-5.46Z" transform="translate(-20.82 -5)"/><path class="cls-28" d="M103.49,408.4l-3.25-1.9c-2.55-7-.29-12.33,7-15.88a25.73,25.73,0,0,1,12.46-2.48c1.58.43,2.92,1.08,2.83,3.06-1.69.7-3.36,2-5,2C107.28,393.28,103.73,399.26,103.49,408.4Z" transform="translate(-20.82 -5)"/><path class="cls-29" d="M172.06,366.56c1.34,7.1,4.82,8.64,10.64,4.1-.25,4.83-3.2,7.88-7.58,7.11-5.7-1-6.14-5.86-5.11-10.78A1.21,1.21,0,0,1,172.06,366.56Z" transform="translate(-20.82 -5)"/><path class="cls-30" d="M153,427l-2,1.64c-8.85-6.09-6.51-14.26-4.2-22.43,2.17,1.23,2.65,3.49,3.46,5.56a14.1,14.1,0,0,1,.55,2.58C150.86,418.7,153.26,422.63,153,427Z" transform="translate(-20.82 -5)"/><path class="cls-31" d="M85,403.18l2,1.61c-3.07,2.47-5.93,5.29-9.26,7.31s-3.38,4.56-2.38,7.66c-3.48,2-4.5-.38-5.35-3C71.23,408,76.6,403.94,85,403.18Z" transform="translate(-20.82 -5)"/><path class="cls-32" d="M252.64,323.77c4.65,5.89,6.49,0,9.21-2.2,1.24.05,1.34,1.23,1.92,1.93-2.69,6.69-6.09,11-13,3.93C249.58,325.29,249.28,323.61,252.64,323.77Z" transform="translate(-20.82 -5)"/><path class="cls-33" d="M337.86,331l1.81-3.91a1.85,1.85,0,0,1,2.16.33,1.41,1.41,0,0,1-.59,2c-.49,10.86,9.59,5.28,13.79,8.86C345.39,342.34,341.84,340.84,337.86,331Z" transform="translate(-20.82 -5)"/><path class="cls-34" d="M172.06,366.56,170,367c-1.24-2.23,1.57-6.24-2.23-7-3.45-.68-4.53,3.53-6.94,5.2a1.24,1.24,0,0,1-2.1,0l2.16-5.6c5.57-6.86,7.06-6.88,11.29-.15Q172.13,363,172.06,366.56Z" transform="translate(-20.82 -5)"/><path class="cls-35" d="M158.74,365.18l2.1,0c-.85,8.21.33,16.31,1.28,24.42-6.13-1.8-3.37-7-3.77-10.74C157.85,374.38,158.56,369.75,158.74,365.18Z" transform="translate(-20.82 -5)"/><path class="cls-36" d="M51.19,427.39l-2.95-.47c4.35-7.33,10-12.49,19.28-11.61,2,4.17-2,3-3.62,4C59.65,422,56.28,426,51.19,427.39Z" transform="translate(-20.82 -5)"/><path class="cls-37" d="M380.62,258.61c4.68,3.36,9.61,2.68,14.61.95,0,5.27-4,5.79-7.58,5.79C383.62,265.35,380.56,263.36,380.62,258.61Z" transform="translate(-20.82 -5)"/><path class="cls-38" d="M263.77,323.5l-1.92-1.93c2.7-6.71-1.71-13.67.75-20.38l1.62,1.89C264,309.88,266.14,316.74,263.77,323.5Z" transform="translate(-20.82 -5)"/><path class="cls-39" d="M252.64,323.77c-1.56.74-1.76,2.17-1.83,3.66-4.35-4.28-.77-9.9-2.45-14.63a3.2,3.2,0,0,1,2.71-2.65C254.14,314.4,251.6,319.29,252.64,323.77Z" transform="translate(-20.82 -5)"/><path class="cls-40" d="M251.07,310.15l-2.71,2.65c-3.09,2.63-5.63,6.33-10.54,5.41C241.52,314.36,243.14,307.07,251.07,310.15Z" transform="translate(-20.82 -5)"/><path class="cls-41" d="M356.25,301.22c-5.45-1.82-3.25-6.24-3.37-9.87,1.79-2.28-.58-5.6,1.92-7.7C356.66,289.39,356.51,295.3,356.25,301.22Z" transform="translate(-20.82 -5)"/><path class="cls-42" d="M63.9,419.35c.71-2,4-.61,4.26-3.24a2.05,2.05,0,0,1,3-.35c.66,2.13,1.13,4.45,4.22,4-.79,5.11-1.88,9.1-7,2.52C67.36,420.94,65.43,420.31,63.9,419.35Z" transform="translate(-20.82 -5)"/><path class="cls-43" d="M148.46,411.92q-.79-2.85-1.6-5.7,0-8.18,0-16.35l1.84-2.06C153.55,395.9,152.42,403.92,148.46,411.92Z" transform="translate(-20.82 -5)"/><path class="cls-44" d="M316.83,18.28c-5.05,2.52-10.08,3-15.05-.23C306.82,17,311.84,16.46,316.83,18.28Z" transform="translate(-20.82 -5)"/><path class="cls-45" d="M354.8,283.65c-1.35,2.39.31,5.53-1.92,7.7l-.21-20.7C356.32,274.5,354.23,279.29,354.8,283.65Z" transform="translate(-20.82 -5)"/><path class="cls-46" d="M122.55,391.2l-2-2.07c-.17-3.45,3-5,4.31-7.61.82-1,1.76-1.85,3.22-1.62l2.28,2.24C128.69,386,126.86,389.66,122.55,391.2Z" transform="translate(-20.82 -5)"/><path class="cls-47" d="M58.1,348c.53-5.71-3.12-11.11-1.23-16.91,4.22.38,4.56,4,5.17,6.85,5.73,26.6,25.95,31.7,48.39,23.5a64.7,64.7,0,0,0,32.3-26.2c8.89-17.58-13-40.87-29.34-39.43a108.79,108.79,0,0,0-35.94,9.63c-1.6-.25-2.75-.87-2.19-2.81,2.53-3.77,7.24-5.89,8.17-10.86a2.74,2.74,0,0,1,2.67-.41c4.13,1.64,7.9-.22,11.73-1.26,8.11-2.2,16.24-4,24.69-2,23.85,8.64,34.7,27,28.78,48.61-7.68,16.12-22.25,24.31-37.08,32.23-8.6,2.7-17.32,4.64-26.4,4.38a29.66,29.66,0,0,1-5.64-.59c-6-2.79-11.84-5.74-16.31-10.81-.58-.62-1.1-1.29-1.62-2A36.56,36.56,0,0,1,59,351.5C58.6,350.35,58.42,349.14,58.1,348Z" transform="translate(-20.82 -5)"/><path class="cls-48" d="M75.26,302.59l2.12,2.08c2.93,5.38-1.4,8.57-3.91,12.1-4.28,6-9,11.77-8.4,19.79,4.53,7.5,7.16,16.34,15.34,21.17,7.77,5.87,15.58,3.57,23.39.1,9.91-3.79,20.73-6.38,24.28-18.53,1.79-2.48,2.95-5.87,7.09-5.1,3.73,4.54-2.74,6.75-2.44,10.13,2-3.58,3.72-7.68,7.83-10,2-.19,3.24,1.16,4.52,2.38-13.93,17.87-30.42,31-54.73,30.31C76,366.58,63.4,356.51,60.6,342.31c-.78-4-1.1-8-3.73-11.26C57.85,318.23,69.2,312.12,75.26,302.59Z" transform="translate(-20.82 -5)"/><path class="cls-49" d="M157.08,125.63c.43-1.16.57-2.58,1.34-3.44C165,114.81,167.5,107,164.09,97c-2.05-6,.47-12.2,5.76-16.55a1.5,1.5,0,0,1,2.43.24,6,6,0,0,1,.42,4.19c-6.39,32.65,10.49,49.76,39.92,51.22,6.45.32,11-5.58,16.88-7.6a5.94,5.94,0,0,1,4.19.17,6.34,6.34,0,0,1,2.72,4.75c-7.87,5.21-16.15,9.93-21.62,18-1.35,1.67-2.23,4.72-4.47,4.37-3-.47-3.2-3.71-2.68-6.13.82-3.85-1-4.7-4.25-5.51-6.69-1.67-12.93-4.72-19.31-7.32a30,30,0,0,1-17.37-17.54c-2.36,2.67-3.47,6.25-7.18,7.16A3.16,3.16,0,0,1,157.08,125.63Z" transform="translate(-20.82 -5)"/><path class="cls-50" d="M137.69,170.58a.76.76,0,0,1,1.21-.17c1.76-.27,1.92-2,2.79-3.07,21.18-14.33,44.07-9.89,63.2,12.25,6,9,5.9,18.95,4.9,29.08-1.45,3.82.24,7,2.17,10.1a4,4,0,0,1-1.09,2.38c-6,4-12.31,6.64-19.71,5.33a2.49,2.49,0,0,1-1.13-2.27c1.06-4.35,6.76-3.89,8.15-7.9,5.91-11.73,6.92-23.47-1.94-34-10.5-12.51-24.41-15-39.78-11.46-6.49.9-11.88,7.21-19.22,3.95A3.8,3.8,0,0,1,137.69,170.58Z" transform="translate(-20.82 -5)"/><path class="cls-51" d="M109.64,242.41c-1-5.2,0-9.65,4.59-12.87,6.46-.85,8.6,5.36,13,7.92,3.83,5,10.09,7.13,14,12a5.86,5.86,0,0,1,.28,5.53c-6.65,8.08-16.56,4-24.69,6.66-3.33-4.05-1.75-9.1-2.73-13.62C116.34,243.26,109.49,245.55,109.64,242.41Z" transform="translate(-20.82 -5)"/><path class="cls-52" d="M115.33,227.4c.33-4.46-5.26-5.21-5.75-9.17,2.44-2.93-1.47-7.77,3-10.07,2.6.91,2.41,3.37,3,4.91.34-4.38-3-10.91,5.67-12,2.6,3,3.18,6.7,3.73,10.42.38,4.42,1.2,8.05,6,10.48,6.89,3.47,9.92,14.65,7.22,23-6.32,1.62-8-4.48-11.72-7.11C122.7,234.44,119.29,230.62,115.33,227.4Z" transform="translate(-20.82 -5)"/><path class="cls-53" d="M109.64,242.41c1.29,2,5.47-.51,5.4,3.52-3.71,11.75-6.68,23.82-15.65,33.16-.59.62-8.53,5.3.86,5.73,4.89.29,9.79,0,14.62.49,3,.31,7.11-.61,7.71,4.3-10.64-1-20.75,1.31-30.79,4.54-2.24.72-6.22,3.77-6.18-2.38,4.8-14.25,14.93-25.47,21.89-38.5C102.5,248.52,111.51,246.54,109.64,242.41Z" transform="translate(-20.82 -5)"/><path class="cls-54" d="M172.25,80.7l-2.4-.26c2.12-2.24,3.83-5.54,6.42-6.53C189,69.1,194.44,57,203.16,48.24l2.54.15c1.34,3.61-1.27,6.35-2.09,9.49-1.06,1.59-1.89,3.24-1.45,5.27A97.31,97.31,0,0,1,178.24,79.9C176.33,80.86,174.46,82.07,172.25,80.7Z" transform="translate(-20.82 -5)"/><path class="cls-55" d="M113.29,208.58c-3.57,2.32,0,7.4-3.71,9.65-2-10.61,2.08-19.48,8.32-27.45,5.83-7.43,11.33-15.3,19.79-20.2l0,4.14a7.71,7.71,0,0,1-1.15,1.88c-.94,1.22-1.76,2.54-2.71,3.78C125.57,188.74,119.48,198.7,113.29,208.58Z" transform="translate(-20.82 -5)"/><path class="cls-56" d="M107.5,253.27C102.43,267.37,93,279,85.61,291.77l-2.18,0c5.14-13.73,14.77-24.94,21.42-37.84C105.12,253.36,106.59,253.46,107.5,253.27Z" transform="translate(-20.82 -5)"/><path class="cls-57" d="M141.57,168.75l-2.67,1.66c-1.55-5.35,0-10,2.79-14.63,3.83-6.26,7.3-12.75,10.92-19.15a4.14,4.14,0,0,1,3,2.4c.84,2.75-.28,5.11-1.5,7.44a49.46,49.46,0,0,0-5.08,8.39c-.89,1.84-1.76,3.67-2.76,5.44C144.5,163,143.34,166.05,141.57,168.75Z" transform="translate(-20.82 -5)"/><path class="cls-58" d="M32.39,414.62l-2.06-2.37c5.08-8.11,1.35-18.14,5.73-26.4,3-.08,3.3,2.24,3.94,4.29C39.9,399.05,43,409,32.39,414.62Z" transform="translate(-20.82 -5)"/><path class="cls-59" d="M38.09,390.15c-.29-1.62-.38-3.33-2-4.3,4.42-5.55,6.69-12.68,12.51-17.21a2.45,2.45,0,0,1,2.54-.14c1.34,6.19-3.06,10-6,14.38C42.74,385.27,42.24,389.48,38.09,390.15Z" transform="translate(-20.82 -5)"/><path class="cls-60" d="M206,35c-.73,2.52.4,5.48-1.82,7.65-2.57-14.15.06-20,12.71-28.16a1.43,1.43,0,0,1,2.22-.12C217.31,22.82,209.36,27.42,206,35Z" transform="translate(-20.82 -5)"/><path class="cls-61" d="M51.11,368.93l-2.54-.29Q53.33,358.31,58.1,348l2.29,2.14c-.53,6.25-2.77,11.94-5.78,17.38C53.69,368.55,52.65,369.35,51.11,368.93Z" transform="translate(-20.82 -5)"/><path class="cls-62" d="M115.33,227.4c5.46,1.07,8.11,5.44,11.09,9.43a1.82,1.82,0,0,1-.34,2.81c-4.62-2.57-6.57-8.29-11.85-10.1Z" transform="translate(-20.82 -5)"/><path class="cls-63" d="M218.64,14.45l-.86.06-.86-.06c4.15-4.11,9.33-6.4,14.74-8.26.11.88.22,1.76.34,2.64C228.78,13.63,224.83,16.7,218.64,14.45Z" transform="translate(-20.82 -5)"/><path class="cls-64" d="M154.62,138.85l-2-2.22,4.47-11,2.41.22a6.59,6.59,0,0,1,.57,4C159,133.31,158.76,137.27,154.62,138.85Z" transform="translate(-20.82 -5)"/><path class="cls-65" d="M308.89,82.66c.23.43.46.85.68,1.28-3.34,3.62-8.38,2.74-12.33,4.69-7-.39-3.58,7.54-7.55,9.58-3.92,4-7.44,8.35-11.08,12.6s.9.74,1.08,1.25c5.93.53,13.51-2.74,15.5,6.75-2.25,5.85-9.23,4.24-12.74,8.08-15.09,7.58-26.78,19.57-39.42,30.35a12.42,12.42,0,0,1-8.1,0c-3.34-1.87-8.79-.65-9.54-6.4,2-8.12,8.89-11.78,15.07-15.82,2.06-1.36,4.85-1.3,4.19-4.8,9.77-18.56,19.47-37.12,7.95-58.58-.22-2.67.05-5.18,2.16-7.14,3.87-1.9,7.54-1.1,11.14.79,4.6.51,7.82,3.5,11.2,6.21-3.17,5.66,2,5.32,4.81,7,5,3,5.22-1.62,6.87-4l2.45.41C297,77.78,302.27,81.71,308.89,82.66Z" transform="translate(-20.82 -5)"/><path class="cls-66" d="M339.43,35.14c11.37,1.38,19.06,9.7,28.33,15,1.82,11.37-5.7,18.12-12.82,24.68-3.06,2.83-4.72,5.4-4.15,9.41-2.41,2.37-5.05,4.35-7,7.37-5.38,8.39-7.12,7.78-14.54.71-6.44-6.13-5.85-11.21-.73-17.28,2.19-2.6,3.94-5.59,6.55-9.35-7.18,1.2-9.55,6.55-12.25,11-2,3.31-3.47,6.47-7.57,3.14-3.33-2.7-10.53-2.21-7.9-10.16,3.32-10.08,8.36-18.73,16.95-25.12,1.69,4.92,6-.62,8.22,2a29.62,29.62,0,0,1,1.69,3.32c1.61,2.77,3.91,2.15,5.22.16,1.72-2.59-1.06-2.85-2.65-3.46a8.83,8.83,0,0,1-3.27-1.74c-.49-2.3,1-3.19,2.72-4.08.79-.41,1.75.18,2.37-.62-1.07-.35-2.37-.15-3.07-1.33Z" transform="translate(-20.82 -5)"/><path class="cls-67" d="M271.29,41c1-12.35,13.64-15.6,19.17-24.41,5.61,1.41,11.1,2.74,8.15,10.82-.68,1.86,1.5,3.14,3,4.19,5.19,5,16.38,3.61,17.39,10,.8,5-6.84,11.16-10.09,17.15-7.52,13.88-7.36,13.95-22.37,10a39,39,0,0,1-15.42-8.43c-2.82-2.42-3.69-4.87-1.37-8C271,48.59,272.48,45,271.29,41Z" transform="translate(-20.82 -5)"/><path class="cls-68" d="M294.13,119.92c-2.9-10.22-11.35-3.66-17-5.62-.1-4.46,4.53-4.41,6.6-6.83,2.56-3,6.7-5,4.8-10,3.52-2.35-.7-10.85,7.52-9.45,8-.25,15.53,2,23.21,3.58,9.45,3.37,10.72,15,19.42,19.15,2.74,2.81,5.87,4.8,10,4.8,1.67.67,3.54,1,4.5,2.82.12,3.72-1.89,6.34-4.42,8.72-10.86-4.19-22.15-1-33.06-2.09C308.65,124.23,300.64,124.31,294.13,119.92Z" transform="translate(-20.82 -5)"/><path class="cls-69" d="M218.64,14.45c5.1-.33,8.76-4.1,13.36-5.62a28.08,28.08,0,0,1,12.45-.28c-3.14,4.25-6.31,7.86-8.68,11.94-1.93,3.32-4.33,6.53-2.93,11.25,1.32,4.44,1.16,9.85-5,10.78-7.53,1.14-4.16-5.85-5.87-9.16C218.63,43.23,215.78,43.5,206,35,205.75,25.37,214.72,21.46,218.64,14.45Z" transform="translate(-20.82 -5)"/><path class="cls-70" d="M254.56,65.22q0,3.78.07,7.56c-4.67,1.42-6.59-2.57-9.08-5-4.55-4.35-9.2-8.31-15.66-9.38-6.09-1.66-12.1-1.39-18.29-.25-3.1.57-6.65,2.28-9.74-.5l3.84-9.31c3.13-2.75,6.85-2.9,10.53-1.88,9,2.5,17.85,5.25,26.77,7.9C246.87,58,251.79,60.46,254.56,65.22Z" transform="translate(-20.82 -5)"/><path class="cls-71" d="M271.29,41c6.16,4.65,3.76,8.15-1.5,11.28-15.26-.36-15.26-.36-15-11.13l9-2.56C266.49,38.9,269.14,39.19,271.29,41Z" transform="translate(-20.82 -5)"/><path class="cls-72" d="M288.78,74.43c-.5,2.64,1.39,4.6,2.69,7.11C283.3,84,277.76,77.25,270.59,78c.42-4.72,4.89-4.1,6.51-6.53C281.47,70.57,285.7,70.26,288.78,74.43Z" transform="translate(-20.82 -5)"/><path class="cls-73" d="M319.27,91.55C311,94,303.47,91.3,296.06,88c3.53-4.61,8.77-3.47,13.51-4C314.69,84.07,317,87.76,319.27,91.55Z" transform="translate(-20.82 -5)"/><path class="cls-74" d="M254.56,65.22c-5.06-2.31-9.94-4.82-11.56-10.81,8.77,1.2,15.95,5.79,22.9,10.84Z" transform="translate(-20.82 -5)"/><path class="cls-75" d="M331.49,46.38l-7.27,3.27c0-1.71.07-3.41.1-5.11,2.69-4,6.59-5.57,11.23-5.73l5,.5-6.7,5.31A2.16,2.16,0,0,1,331.49,46.38Z" transform="translate(-20.82 -5)"/><path class="cls-76" d="M348.25,116.59c-4.1-.48-8.94.25-9.56-5.89a32.35,32.35,0,0,0,19.72,3.45c1.74.13,3.47.28,5.21.42C359.47,122.63,353.43,116.35,348.25,116.59Z" transform="translate(-20.82 -5)"/><path class="cls-77" d="M308.89,82.66c-7.76,1.62-12.72-3.06-17.66-7.82,6.9-.27,11.28,6.79,18.27,6.27a2.65,2.65,0,0,1-.05.85A3.31,3.31,0,0,1,308.89,82.66Z" transform="translate(-20.82 -5)"/><path class="cls-78" d="M38.09,390.15l5.68-8.33c3.48-1.52,6.48-7.12,10.52-3.5,3.82,3.43,0,7.72-2.18,10.82-5.92,8.4-5.79,19.21-11.59,27.63-2.25,3.28-3.38,7.64-8.72,6.86a7,7,0,0,1,.07-5.85l.52-3.16C39.08,407.58,36.9,398.47,38.09,390.15Z" transform="translate(-20.82 -5)"/><path class="cls-79" d="M31.87,417.78l.36,5.48a7.56,7.56,0,0,1,2.11,5c-2.51,6.38-1,13.21-2.19,19.75-9-6.84-10.27-14-4.26-23C29.41,422.75,30.55,420.21,31.87,417.78Z" transform="translate(-20.82 -5)"/><path class="cls-80" d="M32.15,448.05c-1.69-6.3-3.63-12.6,0-18.89,2.66-2.36,5.3-4.21,7.78.2-.64,2.56.13,5.49-2,7.67-4.26,5-.87,11.7-4,16.92C32.28,452.33,32.46,450.11,32.15,448.05Z" transform="translate(-20.82 -5)"/><path class="cls-81" d="M211.22,219.87c.19-.65.38-1.3.56-2,4.56-2.44,8.25,1.15,12.38,1.72a142.19,142.19,0,0,0,18.27-6.06,12.22,12.22,0,0,1,4.82-2,8.73,8.73,0,0,1,4.91,1.78c9.08,6.51,18.74,7.59,29,3.05,7.2,2.49,12.75-1.62,18.57-4.65,7.4-1.59,13.93-8.14,22.34-4,2.08,6.08-3.71,5.13-6.29,7-4.76,2.79-9.47,5.68-16.15,7.55,7.95,1.19,10.79-5.36,15.88-7.15,3.07-2,8.91-1,7.94-7.34,1.87-2.95,4.71-5.35,5.18-9.11,6-5.75,9.22-12.44,7.13-21,2.18-4.24,2.4-9.38,5.93-13,4.27-1.37,5.53-4.51,5.28-8.69-.21-3.39-.66-6.85,1.21-10,2.27-2.4,4.88-4.17,8.27-4.49,2.79.13,5.57.5,8.38.41,3.37,0,6.73,0,10.1,0a15.82,15.82,0,0,1,7.09,1.35,3.26,3.26,0,0,1,1.48,2.21c-.51,3.07-3,4.11-5.35,5.43-3.7,2.09,1.54,1.73.88,3a68.12,68.12,0,0,0-13.1,23.67c-2.61,8.17-10.85,11.94-14.05,19.54-1.55,3.7-4.6,6.61-5.63,10.73-1.47,5.85-4.48,9.77-11.45,6.94-2.52-1-4,.3-5.33,2.4-7.43,11.54-16.92,21.1-29.44,26.8-4.88,2.22-2.32,7.42-5.86,9.52a2.56,2.56,0,0,1-3.74.27c-.51-1.84,2.3-4.94-1.14-5.42s-9.64-1.91-10.53,1.1c-2.45,8.2-8.5,5.53-13.56,6.39-1.11.19-2.09,1.19-3.12,1.81-2.3,1.67-5.06,1.67-7.49,2.28,2.41.41,4.86-1.45,7.48-.65-.06,3.37.7,6,4.9,5.78,3-.15,5.24,1,6.5,3.79a6.72,6.72,0,0,1-4.19,2.25A37.06,37.06,0,0,0,254,274.74c-8.79,4.22-18.33,1.88-27.53,2.38-6.52,1.2-10.47-4.23-15.79-6.15-3.37-1.27-5.85-4-10.08-4.07-5.39-.08-7.19-3.24-3.53-8.06a24.16,24.16,0,0,1,7.09-4.61,37.05,37.05,0,0,0-8.25.41,11.66,11.66,0,0,0-7.09,4.13c-2,2.31-3.8,5-7.18,5.59a4.87,4.87,0,0,1-2.5-.66c-1.61-2.47.9-4.54.75-6.93-2.33.37-4.39,2.58-6.89.77-1.64-3.48.35-6,2.29-8.48a18,18,0,0,0,4-6.59c2.14-3.7-.2-9.26,4.84-11.76a27.51,27.51,0,0,0,17.45.88C207.56,229.89,211.87,227,211.22,219.87Z" transform="translate(-20.82 -5)"/><path class="cls-82" d="M383.07,146.39l-.73-1.86c-2.9-2.38-7.52-2.71-8.65-7.21-.64-2-1.06-4.06-1.72-6.06-.87-3.12-1.41-6.41-4.53-8.3-4.37-3.4-10.58-1-14.84-4.73l-4.35-1.64c5-1.57,10.58,1.12,15.37-2l2.18-.18c7.44.76,11.73,5,13.42,12.12,1,4.15,3.79,7,6.58,10,3.38,3.61,6.27,4.81,9.65-.12,2.17-3.18,5.33-6.12,9.23-2.58,3.73,3.39.66,6.36-1.91,8.53-6.92,5.86,0,10.55,1.07,15.72.51,2.61.87,5.2-1.16,7.41A5.61,5.61,0,0,1,398,167L384.54,152A5.73,5.73,0,0,1,383.07,146.39Z" transform="translate(-20.82 -5)"/><path class="cls-83" d="M279.54,287.94l-15.42,9.33c-7-4.79-13,3.45-19.8,1.48,0-1.95,1.11-3.26,2.5-4.4,4.59-3,10.23-3.87,14.52-7.41,3.62-1.94,6.58-4.86,10.12-6.91a1.64,1.64,0,0,1,2,.81C272.9,285.43,274.29,288.34,279.54,287.94Z" transform="translate(-20.82 -5)"/><path class="cls-84" d="M269.63,269l3.83-.07c8.48,4.2,12.59-5,20-6.47-3.18,10.43-13.78,12-20,18.36a1.35,1.35,0,0,1-.19-.94C271,276.64,269,273.27,269.63,269Z" transform="translate(-20.82 -5)"/><path class="cls-85" d="M371.47,208.52c3.41-1.48,7.32-3.6,10.22-.34,1.55,1.73-.5,4.57-3,5.8-6.42.74-9.64,8.2-16.57,7.85C363.06,215.86,368.75,213.23,371.47,208.52Z" transform="translate(-20.82 -5)"/><path class="cls-86" d="M383.07,146.39c1.92,1.51,1.18,3.72,1.47,5.65L379,154c-2.79-.59-6,1.09-9-2.1Z" transform="translate(-20.82 -5)"/><path class="cls-87" d="M319.24,251.05c-5.29,5.47-11.17,10.13-18.54,12.45C305.52,257.35,312.72,254.72,319.24,251.05Z" transform="translate(-20.82 -5)"/><path class="cls-88" d="M262.06,259.38c-4.05,1.95-7.8,5.38-12.78,2.86-.59-.29-1.22-1.93-1-2.22,3.9-4.61,9.11-1.81,13.77-2.27C262.07,258.3,262.07,258.84,262.06,259.38Z" transform="translate(-20.82 -5)"/><path class="cls-89" d="M362.13,221.83c6.05-1.51,9.37-8.77,16.57-7.85-6,4.45-11.8,9.14-18.65,12.28C360.74,224.79,361.44,223.31,362.13,221.83Z" transform="translate(-20.82 -5)"/><path class="cls-90" d="M398,167c.82-1.43,2.18-1.71,3.67-1.69,2.83,1.51,4.12,4.36,5.93,6.78.44,2.71,6.14,5.52-.09,8.16l-2.09-1.63c-3.62-2.44-5.1-6.42-7.21-9.95l.09-.07C398.17,168,398.07,167.51,398,167Z" transform="translate(-20.82 -5)"/><path class="cls-91" d="M290.42,253.87l3.74-.27c2,.45,4,1.31,1.28,3.2-2.09,1.42-4.84,4.2-7.35,1.77C285.78,256.33,288.74,255.05,290.42,253.87Z" transform="translate(-20.82 -5)"/><path class="cls-92" d="M346.88,236.65l-3.35.14c2.63-3.95,6.37-6.16,11.79-7.88C353.12,233.35,349.22,234.14,346.88,236.65Z" transform="translate(-20.82 -5)"/><path class="cls-93" d="M401.64,202.94q.11-3.78.22-7.56l9.16-8.93a6.46,6.46,0,0,1,1.8-2c6.13-2.79,8.18,1.44,10.11,5.89C417.63,197.57,412.48,205.06,401.64,202.94Z" transform="translate(-20.82 -5)"/><path class="cls-90" d="M412.88,186l-1.86.5c0-.72,0-1.43-.08-2.15-1.7-3.55-.27-7.87-2.75-11.23.55-5.95.1-12.16,4.3-17.2,1.84-.81,2.85.22,3.67,1.67a11.29,11.29,0,0,1,.34,6.15c-2.07,6.44,0,13.28-1.83,19.75A12.06,12.06,0,0,1,412.88,186Z" transform="translate(-20.82 -5)"/><path class="cls-3" d="M398.17,168.65a24.16,24.16,0,0,1,7.21,9.95c-2.34,5.22-2.85-.38-3.3-.86C399.74,175.25,397.85,172.37,398.17,168.65Z" transform="translate(-20.82 -5)"/><path class="cls-94" d="M390,250.71c-.65.57-1.55,2-2.35,1.94A3.81,3.81,0,0,1,384,249.1c-.06-.75,1.41-2.26,2.24-2.3C388.28,246.71,389.62,248,390,250.71Z" transform="translate(-20.82 -5)"/><path class="cls-82" d="M409.27,173c2.4,3.51,1.76,7.47,1.67,11.35-1.16-1.36-2.31-2.72-3.47-4.07,3.63-3.65-2-4.81-2-7.46.69-1.45,1.76-2.42,3.41-1.92C409.89,171.17,409.69,172.14,409.27,173Z" transform="translate(-20.82 -5)"/><path class="cls-95" d="M401.67,159.59c-.29-1.5-.05-3.75-1-4.4-8-5.73-3.56-10.47,1-15.22,1.39-1.44,4.44-2.2,2.14-5-2-2.43-4-1-5.5.75-2.39,2.82-3.7,8.56-8,7-5.45-1.94-10.86-6.7-12-12.18-1.71-7.95-6.11-12.51-12.49-16.19l3.81-3.8c5.19,3,5.21-4.88,9.22-4.37,2.94,1.55,5.23.38,7.28-1.78-1.85,1.35-3.71,2.41-5.8.41a3.13,3.13,0,0,1,.6-3.71c1.38-5.17,9.14-4.94,9.39-11.08,5.23-1,8.34,2.16,11.18,5.79,4.08,5.1,9.18,4,14.1,2,3.44-1.47,6.78-2.71,10.56-2.27,3.8,4.53,11.22,6.28,10.79,14.07-2.67,2.74-5.51,5.31-8.26,8-4.26,3.79-9.8,6.43-11.28,12.7-.8,2.31-2.91,3-5.32,4.22,6.2-1.81,7.61-7.9,11.84-11,6.15-2.33,7.45.39,6,5.82-.67,2.51-2.53,4.24-4.29,6-6.1,6.24-12.49,12.15-15.1,21.05C409.33,160.45,406,162.31,401.67,159.59Z" transform="translate(-20.82 -5)"/><path class="cls-96" d="M401.48,95.84c-4.33-.75-7.52-3.72-11.18-5.79.44-7.11,6.85-7.25,11.29-9.67a28.94,28.94,0,0,1,5.4,1c5.26,2,9.93,6.8,9.56,11.18-.36,4.19-7.22,2.66-11.37,3C404,95.68,402.72,95.76,401.48,95.84Z" transform="translate(-20.82 -5)"/><path class="cls-66" d="M356.49,87.48c1.93-3.13,3.83-6.26,5.79-9.36,1-1.55,2.3-3.71,4.21-2.28,2.34,1.73.53,3.79-.74,5.58-2.13,3-4.17,6-6.25,9Q358,89,356.49,87.48Z" transform="translate(-20.82 -5)"/><path class="cls-82" d="M380.91,101.13,381,105c.35,1.54-.3,2.12-1.81,1.9a70.29,70.29,0,0,1-5.28,6.23c-4.11,3.88-3.67-.35-4.3-2.58C374.73,109,374.69,101.34,380.91,101.13Z" transform="translate(-20.82 -5)"/><path class="cls-97" d="M114.84,366.68c13-8.21,26.5-15.79,34.37-29.86,2.92-2.44,5.14.4,7.84,1-3.85-2.17-8.66-4-2.91-9.09,6.65,1.12,14-4.48,20.11,2.18,2.75,4.22-.09,8.11-.74,12.13,1.47,1.88,4.66.79,5.75,3.33-1.29,4.55-5.34,8.52-2.74,14,.27.57-.23,3.54-2.22,3-1-.27-1.43-2.5-2.11-3.84-3.87-7.23-7.55-1.11-11.29.15-5.46.2-4.05,4.4-4.37,7.56-.91,8.89,2,18.07-2,26.73-4.85-.41-2.22-5.06-4.09-7.15a1.77,1.77,0,0,1-1.3-1.22c-.38-1.17-.78-2.34-1.16-3.52-3.47-10.75-6.43-11.78-15.6-5.37-1.48,1-2.87,2.19-4.31,3.29L126,382c-5,2.7-2.7-4.37-5.75-4.29,1.1-2.89,4-3.8,6.22-5.29s4.43-3.4,6.21-4.3c-4.78,3.86-11.77,6.22-15.48,12.68-10.13,4.68-11.89,4-13-5.1C105.82,370.42,111.92,370.45,114.84,366.68Z" transform="translate(-20.82 -5)"/><path class="cls-98" d="M173.51,343c-3.23-4,2-7.85.26-11.84-2.07-8.12,1-14.86,5.64-21.21,6.68-6.68,12-14.43,17.57-22,7.56-7.92,15.89-14.22,27.73-13.08,11.92,0,24.07,2,34.91-5.57,2.83-2,6.64-.47,10-.24a10.37,10.37,0,0,1,3.66,10.88c-3.17,3.3-5.73,7.37-10.61,8.56a2.13,2.13,0,0,1-1.14-2.15c.08-4.14,7.87-6.63,3.71-10.85-3.59-3.64-7.73,1.18-11.49,2.74a17.37,17.37,0,0,1-5.27,1.5c-4.64.49-9.32,1.67-13.93,1-13.17-1.92-22.92,3.56-30.82,13.44-7.07,7.79-11.88,17.35-19.78,24.56-3.23,2.94-3.43,7.77-3.78,12.95,5.39-.1,9.46-5.16,14.82-3.63a2.81,2.81,0,0,1,1.69,1.91C189.21,334.73,180.13,336.67,173.51,343Z" transform="translate(-20.82 -5)"/><path class="cls-99" d="M230.63,307.1c-10.44,8.92-20.48,18.42-33.94,22.83l-.54-.66c.73-6.06,6.81-6.36,10.29-9.44,2.77-2.44,6.22-4.08,9-6.58,4.12-3.05,7.63-7.18,13.23-7.68A2.83,2.83,0,0,1,230.63,307.1Z" transform="translate(-20.82 -5)"/><path class="cls-100" d="M247.63,295.94q-1.65,1.41-3.31,2.81l-13.69,8.35-.57-.54c1.24-9.15,8.44-10.75,15.64-12.35A2.81,2.81,0,0,1,247.63,295.94Z" transform="translate(-20.82 -5)"/><path class="cls-101" d="M354.34,317.81c1.35,10.48-1,13.37-9.24,11.44a31.54,31.54,0,0,1-2-15.17c.53-1.9,1.07-3.79,3.58-3.86C350.84,311.13,352.26,314.8,354.34,317.81Z" transform="translate(-20.82 -5)"/><path class="cls-102" d="M341.09,327.78a7.33,7.33,0,0,1-1.42-.66l-.36-61.7c4.2,8.41.94,17.4,2.05,26.05,3.72,6.67,3,13.74,1.91,20.85C342.31,317.44,345.19,323.1,341.09,327.78Z" transform="translate(-20.82 -5)"/><path class="cls-103" d="M341.55,312.23q-.09-10.38-.19-20.76c7.73,4.56,5,12.09,5.32,18.76-.59,1.2-1.19,2.4-1.78,3.61C342.75,315.46,342.41,313.3,341.55,312.23Z" transform="translate(-20.82 -5)"/><path class="cls-104" d="M412.88,186l.88-2c.81-6.9-.83-13.91,1-20.76.14-1.67.27-3.34.41-5-.62-7.58,3.72-13,8.09-18.36a35,35,0,0,1,7.12-4.8c7.6-2.79,14.66-9.43,23.52-3.37,6,2.48,12.81,3.88,15.69,10.9,2.29,5-.61,8.68-3.8,11.49-13.09,11.48-27,22.06-39.15,34.58a5.18,5.18,0,0,1-4.42,1.08C418.66,189.55,417.75,182.77,412.88,186Z" transform="translate(-20.82 -5)"/><path class="cls-105" d="M422.22,189.67c12.9-12,25.24-24.53,39.65-34.78a18.66,18.66,0,0,0,7.72-12.37c7.91,11.76,7.21,14.1-3.63,22.46-20.43,15.77-40.36,32.2-62.4,45.77-7.33-.95-2.56-4.89-1.92-7.81C410.36,201.39,416.28,195.51,422.22,189.67Z" transform="translate(-20.82 -5)"/><path class="cls-106" d="M430.2,137.16,425.39,141c-7.71,1.95-6.79,11.13-12.42,14.82-1.46,5.66-1,11.74-3.7,17.13-1.17-2.29-2.54-.35-3.82-.18-1.15-2.56-4.06-4.22-3.82-7.48a5,5,0,0,0,0-5.7c2.89,0,6.39,0,6.93-3.35,1.81-11.1,10.06-17.28,17.37-24.32a8.29,8.29,0,0,0,2.49-5.76c-.26-3.47-2.34-2.58-4.15-.78-2.36,1.74-4.4,4.1-7.72,4-1.75-.15-3.57-.94-1.61-2.61,4.21-3.59,7.42-8.43,12.82-10.58,4.34,2.36,8.66,4.95,13.85,2.07.87-5.26-6.53-4.69-6.27-9.3-.87-6-7.43-8.06-9.24-13.4l5.6,1.89c10,8.43,18.41,18.61,29.06,26.34,1.68,1.22,4.21,2.72,3.69,5-.72,3.16-4,2.29-6.36,2.57C448,129.09,438.38,129.79,430.2,137.16Z" transform="translate(-20.82 -5)"/><path class="cls-107" d="M430.2,137.16c-2-1.59-.68-2.75.7-3.42,8.75-4.27,17.7-6.8,27.23-2.42l-4.23.3C445.44,131.05,437.62,133.25,430.2,137.16Z" transform="translate(-20.82 -5)"/><path class="cls-108" d="M153,427c-3.72-3.52-4.58-7.91-3.92-12.78a2.28,2.28,0,0,1,3.54-.24,6,6,0,0,0,1.37-1.15c1.5-2.37-.17-7.24,4.12-7.13,3.87.1.93,4.76,2.83,6.63a1,1,0,0,0,.84.05,2.74,2.74,0,0,0,.71-.58C165.18,422.76,162.9,426.43,153,427Z" transform="translate(-20.82 -5)"/><path class="cls-109" d="M152.65,414l-3.54.24c-.22-.77-.43-1.54-.65-2.31a119.92,119.92,0,0,0,.25-24.11l.42-2.31a9.65,9.65,0,0,0,1.68.35c2.52,6.92,1.45,14.17,1.93,21.27Z" transform="translate(-20.82 -5)"/><path class="cls-110" d="M152.74,407.12c-3.76-6.81-.69-14.23-1.93-21.27,4,1.38.94,6,3.7,8C154.36,398.34,155.23,403,152.74,407.12Z" transform="translate(-20.82 -5)"/><path class="cls-4" d="M341.55,312.23l3.35,1.61c-1,5.15,3.2,10.23.2,15.41l-3.86.17a5.05,5.05,0,0,1-.15-1.64Q341.33,320,341.55,312.23Z" transform="translate(-20.82 -5)"/><path class="cls-111" d="M105.69,374.52C105,386.9,112.13,380,116.83,379c.93-1.6,2.15-1.81,3.64-.77,3.48-1.16,2.41,4.33,5.48,3.76.5,4.13-4,4.46-5.43,7.16-5.64,2.72-13.07.9-17.34,7.33-2.11,3.18-4.28,6-2.94,10-.08.59-.16,1.18-.26,1.76-3.74,1.66-5-1.51-6.91-3.5-1.84-4.89-4.89-3.6-8.07-1.58-4.61,4.2-11.6,5.76-13.8,12.59l-3,.34c-8.84-.46-13.29,7.17-19.91,10.81-2.78.81-5.13,3.06-8.31,2.44-2.54-2.06-5.18-.38-7.78-.2,0-2,.05-3.93.07-5.89,6.78-3.22,8.55-10.66,10.11-16.22,2.75-9.76,7.45-18.32,12.3-27.5-4.61-1.8-7.19,3-10.87,2.27q3.67-6.45,7.34-12.89L53.23,367A9.24,9.24,0,0,0,57,362c1.56-4.63,4.64-5.31,8.53-2.4l.34.1c.63,9.92,7.3,11.47,15.37,11.08l5.56.06c4.25-1.29-4.85,5.38,1.91,3.08A22.56,22.56,0,0,1,105.69,374.52Z" transform="translate(-20.82 -5)"/><path class="cls-112" d="M93.07,404.76c3-.26,4.38,2.78,6.91,3.51.09,2.73-.69,5.89-3.71,5.14C92,412.36,92.91,408.14,93.07,404.76Z" transform="translate(-20.82 -5)"/><path class="cls-113" d="M135.77,334.93c-3.66.05-4.22,3.26-5.67,5.56-7.14,1-14.87-3.1-21.49,2.48a1.08,1.08,0,0,1-.91,0c-13.48-5.8-27.68-2.94-41.59-3.54-1.57-.06-2.61-1.6-3.74-2.67-.22-9.47,5.1-16.35,10.78-23.06,2.23-2.64,4-5.49,4.23-9.05,21.12-19.4,55.4-14.08,67.36,10.31,3.6,7.33,2.74,14.43.35,21.7a3.61,3.61,0,0,1-3.73-2.09C139.31,331.68,137.75,336.76,135.77,334.93Z" transform="translate(-20.82 -5)"/><path class="cls-114" d="M154.6,329.25c-5.3,6.72,4.5,5.49,4.79,9.48-3.69,1.38-6.68-1.87-10.18-1.91,4.76-18.94-2.62-34.43-21-44.1-1.89-1-3.75-2.07-5.62-3.11-4.34-3.54-9.45-1.1-14.16-1.82-3.49-.54-7.44,1.29-10.41-2-.83-1-1.46-2.48-.62-3.38,6.55-7,11.83-15.13,19.49-21.07a16,16,0,0,1,12.87-3.71c4.65.68,8.39-1.17,11.86-3.95q.45.54.93,1.08c1.1,3.53,1,6.54-3.32,7.76-4.81.17-10.16-.89-12.28,5.41-.68,2.39-4.54,3.27-3.09,6.64,2.53,5.16,8.23,3.34,12.08,5.51,3.33,1.64,6.41-.84,9.66-.62,4.31,1.37,8.25,3.21,9.76,8a11.49,11.49,0,0,1-.45,3.56c9.3,2.94,18.3,4.18,26.47-3,2.57-2.25,5.83-4.81,9.07-2s2.22,6.77.27,10.26c-2.88,5.14-6.13,10-10.73,13.81-5.36,1.52-8.45,5.85-12.08,9.59C164.07,323.7,161.07,328.94,154.6,329.25Z" transform="translate(-20.82 -5)"/><path class="cls-115" d="M105.69,374.52c-8.32.1-16.61.44-25,2.78,1.25-3.53,5.39-3.23,6-6.48,9.72,1,18.77-2.45,28.09-4.14C114.65,372.63,108.76,371.94,105.69,374.52Z" transform="translate(-20.82 -5)"/><path class="cls-116" d="M81.19,370.76c-5.12,3.75-10.31,2.29-14.54-1-3.09-2.4-2.66-6.52-.82-10.07Z" transform="translate(-20.82 -5)"/><path class="cls-117" d="M65.48,359.58c-3,0-6.5-.95-7,3.72-.33,3.35-2.68,3.69-5.29,3.7,2.73-5.49,3.35-11.87,7.16-16.9Q62.93,354.84,65.48,359.58Z" transform="translate(-20.82 -5)"/><path class="cls-118" d="M62.37,336.78c10.18-3,20.41,3.26,30.59-.16.29-.09.7-.43.84-.33,11.42,7.36,24.89-3,36.3,4.21-4.12,13-15,16.58-26.7,19A42.26,42.26,0,0,1,79,359.42C69.85,354.53,67.56,344.59,62.37,336.78Z" transform="translate(-20.82 -5)"/><path class="cls-119" d="M79,359.42c8.12.21,16.26-1.29,24.38.12C95.24,365.64,87.12,364.79,79,359.42Z" transform="translate(-20.82 -5)"/><path class="cls-120" d="M135.77,334.93c1.52-1.45,2.89-3.78,4.61-4.09,1.54-.27.94,2.34,1,3.76l-11.27,14.55-1.21-.72Z" transform="translate(-20.82 -5)"/><path class="cls-121" d="M230.16,129.71c-22.6,17.2-51.36,6.81-58.93-20.82-2.33-8.5-6.46-16.45.35-24.57,3.27-1.51,5-6.44,9.89-4.4,6.36,3.68,14.47.75,20.61,5.41.77.59,1.79-.1,2.36-.89,5.46-7.54,12.82-6.27,20.43-4.66,12.65,2.68,12.94,2.35,13-10.62a5.69,5.69,0,0,1,1.27-3.46c2-1.36,3.43-.29,4.86,1,1.61,2.29,2.2,5,3,7.58,1.06,4.22,2.13,8.57,1.22,12.85-.79,3.72,2.51,1.81,3.4,3.08a6.55,6.55,0,0,1,.57,5.1c-2.36,5.73-6.61,10.61-7.57,17-1.47,2.81-3.21,5.39-6,7.06-2.74,1.1-5.57,2-7.9,4a7.68,7.68,0,0,1-2.48,1.11,17.75,17.75,0,0,0-4,2c1.38-.2,2.38-1.54,3.92-1.28C229.77,126.2,230.2,127.85,230.16,129.71Z" transform="translate(-20.82 -5)"/><path class="cls-122" d="M224.29,221.77l-12.51-3.85c-3.69-1.18-6.19-3-4.17-7.42,3.53-10.67,5.68-21.14-4.2-29.92-19.31-20.51-37.2-23.94-61.84-11.83.25-3.4,0-7,3.13-9.41,7.64-5.2,17.8-7.58,20-18.78,1.08-5.53,1.88-10.39-5.69-11.35l.51-3.36L167,115.54c7.63,21.56,28,21.9,44.75,28.76-1.3,2.61-3.4,5.83-1.86,9.88l3.17-4.22c4.33,4.22,8.8.6,13.22.25,1.17,3.75,4.81,4.31,7.65,5.9,0,4.24-3.76,3.92-6.25,5,4.11,1.94,8.75-2.28,12.79,1.1,1.61,4-.63,7.28-1.85,10.75-3.64,10.39-2.82,20.22,3.62,29.35a15.15,15.15,0,0,1,4.2,5.17,9.9,9.9,0,0,1,.56,5.22l-3.78,1.58C233.77,208.77,230.81,219.78,224.29,221.77Z" transform="translate(-20.82 -5)"/><path class="cls-123" d="M243.25,67.51l-3.54-2.27-1.25-.07c-3.12-1.33-6.14-2.77-7.32-6.34a3,3,0,0,1,.78-2.27c9.81,2.27,15.56,10.23,22.71,16.22,9,10.18,6.81,22.15,3.17,33-3,8.83-2.5,20.17-13,25.41-2.28,3.4-5.08,4.69-8.82,2.19a3.59,3.59,0,0,1-2.08-3.59c-1.15-1.49-.14-2.46.83-3.44,13.52-8.94,18-22.76,20.08-37.74.7-5.14-3.19-8.62-5.83-12.47C247.07,73.25,245.25,70.32,243.25,67.51Z" transform="translate(-20.82 -5)"/><path class="cls-124" d="M236,133.33c3.33.85,5.75-2,8.82-2.19,5.86,2.56,2.25,4.81-.67,5.48C236,138.5,232,145.4,226.31,150.21c-4.49,4-9,10.07-13.22-.25C219.64,142.91,225.1,134.36,236,133.33Z" transform="translate(-20.82 -5)"/><path class="cls-125" d="M181.07,80c-4.26-1-5.16,5.45-9.49,4.3l.66-3.62c10.36-5.58,20.43-11.6,29.5-19.16,2.25-3.51,5.91-3.85,9.55-4.21,1.81,1,2.75,2.37,2.08,4.5a141,141,0,0,0-23.09,14.9C187.66,78.8,184.78,80.74,181.07,80Z" transform="translate(-20.82 -5)"/><path class="cls-126" d="M235.58,127.32c-.54.81-1.09,1.61-1.64,2.42l-3.78,0-2.37-3.58c.53-1.55,2.26-2.52,2.17-4.38,1.79-2.68,4.11-4.27,7.51-3.52C240.55,122,239.76,125,235.58,127.32Z" transform="translate(-20.82 -5)"/><path class="cls-127" d="M133.92,178.59c.22-1.48.42-3,2.27-3.29,4.17,2.41,7.85-.23,11.52-1.41,5.06-1.62,10-3.18,15.82-2.92-2.75-.34-5.42.39-7-2.21,16.54-4.88,30.78-.85,41.77,12.22,9.74,11.58,8.58,24.32,1.59,37-4.89,1.22-9.16,4.05-14,5.32-1.58.2-3.58.41-4.44-.78-5.26-7.32-11.59-4.62-17.92-2.2-2.43.93-5.46,2-6.9-.4-7.08-11.52-18.15-6.32-27.77-6.95-2.06-.13-4.23,1.33-6.12-.61l-2.22-12.11c-1.36-6.49,5.4-8.54,7.42-13.29C129.16,183.92,131.91,181.39,133.92,178.59Z" transform="translate(-20.82 -5)"/><path class="cls-128" d="M211.22,219.87c4,3.26,4,6.18-.05,9.69-7.18,6.24-20.68,7.42-26.35,1.91-.71-4.6,2.06-5.52,5.76-5.47C197.87,225.35,204.52,222.5,211.22,219.87Z" transform="translate(-20.82 -5)"/><path class="cls-129" d="M190.58,226c-1.58,2.18-5.05,2.37-5.76,5.47-3.28,3.78-.9,9.18-3.72,13.09-2.34.92-3.5-1.34-5.28-1.92-5.51-1.7-9.86,4.72-15.47,2.22-2.66-5.36,1-7.76,4.73-10.16,3-2,5.68-4.69,9.41-5.49,4.45-.56,7.65-3.6,11.31-5.73a4.47,4.47,0,0,1,3.69-.63l1,.83Z" transform="translate(-20.82 -5)"/><path class="cls-130" d="M156.51,168.76h13.78l.33,2.12c-10.68,2.39-21.35,4.82-32.07,7-.58.12-1.56-1.69-2.36-2.61a14.07,14.07,0,0,0,1.53-.57Z" transform="translate(-20.82 -5)"/><path class="cls-131" d="M203.41,180.58c11.67,7.73,12.46,13.33,4.2,29.92C208.75,200.17,208.77,190,203.41,180.58Z" transform="translate(-20.82 -5)"/><path class="cls-129" d="M186.74,221.79c4.27-1.63,7.43-7.09,13.13-3.84-.65,6-6.9,2.76-9.38,5.73l-.21-.14C189.42,222.32,187.53,223.16,186.74,221.79Z" transform="translate(-20.82 -5)"/><path class="cls-132" d="M116.88,261.35c-3.36,10.41-14.13,15.1-18.87,24.45l-3.9,2.49L92,287.23c9.27-13,15.56-27.42,23-41.3C119.05,250.66,116.11,256.23,116.88,261.35Z" transform="translate(-20.82 -5)"/><path class="cls-133" d="M177.34,240.64l3.76,3.92-3.65,5.59c-4.71-1.55-4.74,6.68-9.7,4.65-5.31-.39-10.48.87-15.71,1.36-3.7.34-7.48.56-10.47-2.42l0-.05c-.61-1.26-1.22-2.53-1.84-3.79.68-.66,1.41-1.53,2.31-1.51C154.45,248.61,165.85,244.41,177.34,240.64Z" transform="translate(-20.82 -5)"/><path class="cls-134" d="M177.34,240.64c-11.7,6.44-23.67,11.78-37.58,9.26-4.61-3.36-10.37-5.18-13.68-10.26.11-.94.23-1.87.34-2.81,4.23,1.87,6.11,7.13,11.21,7.75,7.54-1,15.09-1.69,22.67-.3C166.34,244.73,170.64,237.07,177.34,240.64Z" transform="translate(-20.82 -5)"/><path class="cls-135" d="M160.3,244.28a28.5,28.5,0,0,1-22.67.3c-.81-8.53.3-17.66-10.79-21.53-3.77-1.32-4.19-6.54-4.16-10.72,9.09-4.83,18.74-.94,28.09-1.73a5.7,5.7,0,0,1,3.46,1.05c7.8,5.65,11,6,19.54,1.78,2.7-1.33,4.35-1.55,4.95,2.47s3.69,6.17,8,5.89c1.45.05,2.82.25,3.55,1.76l-3.76.18c-3.38,3-7.91,4.24-11.1,7.5C169.31,234.33,162.54,236.67,160.3,244.28Z" transform="translate(-20.82 -5)"/><path class="cls-136" d="M133.92,178.59c-1.33,9.17-9.49,14.1-13.46,21.63-3.44,4-3.92,8.87-3.78,14.06-3.24-.83-2.85-3.54-3.39-5.69C117.2,196.54,123.58,186.2,133.92,178.59Z" transform="translate(-20.82 -5)"/><path class="cls-137" d="M211.17,58.1l-9.43,3.44c-1.92-1.34.32-2.55.12-3.84,9.92-3,19.9-4.38,30.06-1.14l.06.75C225.24,62.57,218.22,60.78,211.17,58.1Z" transform="translate(-20.82 -5)"/><path class="cls-138" d="M159,129.21l9.33-1c-.12,16.55-5.13,29.08-23.61,31.08a8.08,8.08,0,0,1,2.89-5.37c3.38-1.47,4.65-4.16,4.43-7.69q1.3-3.72,2.6-7.43Z" transform="translate(-20.82 -5)"/><path class="cls-122" d="M152,146.28c2.81,5.08,1.28,7.74-4.43,7.69Z" transform="translate(-20.82 -5)"/><path class="cls-139" d="M369.59,122c4.19,1.9,4.23,5.47,3.71,9.26-5.42,7.09-12.48,2.58-19.91,2.66,2.16,5.52-1.18,9-4.54,12.55.3,3.91,1.17,7.89.73,11.72-.39,3.45.06,9.24-6.8,6.38-2.09-2.28-1.88-5.15-2.11-7.93-1.2-15.11-9-23.75-24.06-26.32-8-1.37-15.95-2.48-24.11-2.17-3.92.14-8.19.9-11.48-2.41,2.73-5.66,8.9-3.49,13.12-5.77,7.15-.12,14.25-.12,21,2.89,3.2,1.43,7.08,2,9.94.16,7.65-4.88,13.85-3.39,19.66,2.9,1.34,1.45,2.88.05,4.3-.34C355.37,121.31,362.87,123.89,369.59,122Z" transform="translate(-20.82 -5)"/><path class="cls-140" d="M281,125.7c13.7-1.36,27.3-1,40.58,3,17.26,5.16,23.67,16.16,21.18,35.82q-2.83,6.72-5.65,13.44c-6.83,5.65-5.57,15.17-10.41,21.78a11,11,0,0,1-6.29,2.88,5.81,5.81,0,0,1-4-1.25,5,5,0,0,1-.62-4c6.19-9.63,11.88-19.59,18.14-29.21,5.12-7.88,4.34-16.3-1.25-22.87-2.4-8.33-9.93-8.85-16.52-10.8-23.28-6.73-43.55-2.53-59.74,16.44-8,7.27-13.8,15.85-15.47,26.81-1.23,5.93-1.26,11.73,1.11,17.47,1.34,3.22,2.16,6.62-.61,9.68-9-9.66-8.53-20.9-5.37-32.55,1-3.57,2.14-7.08,3.22-10.61-1.07-3.61,1.35-4.43,4-5C252.89,142.69,266.14,133.2,281,125.7Z" transform="translate(-20.82 -5)"/><path class="cls-141" d="M288.54,97.42c2.69,1.48,7.08,2.06,2.21,6.5-4.25,3.89-8.24,8-13.61,10.38-2.91-.11-3.08-1.32-1.36-3.35C279.79,106.21,283.07,100.78,288.54,97.42Z" transform="translate(-20.82 -5)"/><path class="cls-142" d="M243.35,156.68l-4,5c-6.11,4.75-11.56.33-18-1.27,3.78-3.94,9.87.41,12.61-4.34Z" transform="translate(-20.82 -5)"/><path class="cls-143" d="M331.49,46.38l2.33-1.76c.92-.07,1.85-.2,2.78-.19,3.31,0,7.93-.84,7.61,4.08-.26,3.91-4.89,5.66-8.19,6.6-4.93,1.42-4.06-3.09-4.42-6C331.49,48.24,331.52,47.31,331.49,46.38Z" transform="translate(-20.82 -5)"/><path class="cls-144" d="M347,53.08c2.43-.58,3.38.34,3.6,2.11.3,2.51-.72,4.07-3.38,4.31-1.91.18-4.11,0-4.45-2.06C342.21,54.09,345.87,54.44,347,53.08Z" transform="translate(-20.82 -5)"/><path class="cls-145" d="M369.59,122c-5.83,7.08-13.68,2.5-20.54,3.58-.47-3.24,2.58-4.77,3.55-7.31C358.84,116.87,364.65,117.41,369.59,122Z" transform="translate(-20.82 -5)"/><path class="cls-51" d="M141.57,253.74a64.21,64.21,0,0,0,19.07-1.43c3-.76,6.77-1.15,9.47,1.79,1.63,2.61-.74,4.46-1.22,6.64,2.44,5.18,7.28.48,10.44,2.57l2,.08c3.54.82,5.72-1.78,8.34-3.29s5.43-3.41,8.37-.42c-2.5,4.16-.74,6.24,3.45,5.32,4.53-1,7.33.62,9.76,4-3.2,7.66-9.09,13.58-13.27,20.61-5.07,7.49-8.95,15.92-16.71,21.31a1.38,1.38,0,0,1-2.12-.6c3.29-5.13,6.55-10.28,9.9-15.38,1.7-2.6,2.51-5.8.19-7.69s-4.69.6-6.29,2.48c-8.82,10.39-20.59,5.09-30.9,5-5.17,0-1.33-3.51,1.13-4.86a71.7,71.7,0,0,1,12,.8c5.57,1,10.24-.91,14.13-6C171,286.34,163.78,293,155.16,288l-9.89-7.42c1.2-3.57,3.66-3.48,6.49-2.64-2.07-1.16-4.25-.17-6.43.19a5.32,5.32,0,0,1-3.78-1,3,3,0,0,1-.51-2.49c1.09-2.08,4.46-2.05,4.82-5.84-5.08,1.74-10.19,2-14.45,5.07a13.23,13.23,0,0,1-3.5,2c-1.88.44-3.66.42-5.12-1.1-9.7-7.9,3.68-4.22,3.65-7.27,3.46-2.58,5.47-7.89,11.3-6C142.86,260.77,141.05,256.67,141.57,253.74Z" transform="translate(-20.82 -5)"/><path class="cls-146" d="M321.25,201.3l4.58-2.53A3.59,3.59,0,0,1,330,199c1.4,5.14-2.09,7.42-5.64,9.67a1.09,1.09,0,0,1-1.9,0c-8.37-1.52-15.13,3.46-22.6,5.59-4.07-1-9.57,1.93-11.82-4.21,3.26-6.5,10.17-2.37,14.73-5.1C308.53,201.68,315.31,203.65,321.25,201.3Z" transform="translate(-20.82 -5)"/><path class="cls-147" d="M348.85,146.43a17.28,17.28,0,0,1-1.11-2.21c5.48-3.76,6.1-7.82-.18-12.23,9.29-2.31,17.65,3.74,25.74-.76,2.23,1.57,1.48,3.89,1.49,6-5.5,4.27-12.38,3.51-18.6,5.12C353.82,143.86,352,146.42,348.85,146.43Z" transform="translate(-20.82 -5)"/><path class="cls-148" d="M330,199l-4.18-.22c1.92-7.93,1.64-17.06,11.3-20.79l.06,2.74-.47,14.58C335.67,198.69,331.26,196,330,199Z" transform="translate(-20.82 -5)"/><path class="cls-149" d="M198,289.57c2.48-8.12,6-15.58,13.27-20.61,6.29-2.19,6.89,8.62,13.42,5.87C213.79,276.09,205.84,282.72,198,289.57Z" transform="translate(-20.82 -5)"/><path class="cls-150" d="M198.07,259.68c-3.35-.66-5.68,1-8,3.14-2.61,2.38-5.58,3.73-8.68.57C194.3,251.07,194.3,251.07,206,253,204.68,256.92,201.94,259,198.07,259.68Z" transform="translate(-20.82 -5)"/><path class="cls-151" d="M247,212.71c-1.83-.85-2.23-2.35-1.91-4.18,2.94-2.59,5.63-.47,8.59.16,7.5,1.62,15,3,22.43-1.11,4.17-2.33,8.27-2.1,11.05,2.61-1,3.69-3.48,5.76-7.12,6.59-9.92,1.46-19.86,3.21-29.16-2.53Z" transform="translate(-20.82 -5)"/><path class="cls-152" d="M264.48,239.92c-9.28,2.19-18.19,3.45-27.06-.31C245,233,252.52,233,264.48,239.92Z" transform="translate(-20.82 -5)"/><path class="cls-153" d="M250.91,214.25c9.81,4,20.16-.41,30.07,1.95.45.46.56.88.34,1.25s-.4.52-.59.52C269.82,224.54,260,222.17,250.91,214.25Z" transform="translate(-20.82 -5)"/><path class="cls-154" d="M179.33,263.31c-4.94.52-12.08,9-13.39-3.69,2.37-1.11,4.68-2.37,7.41-2.31l8.77-4.1C184.5,257.73,180.48,260.09,179.33,263.31Z" transform="translate(-20.82 -5)"/><path class="cls-155" d="M224.29,221.77c2.43-5,9.69-7,8.55-14.55l10.41,7.07C238.14,219.85,230.68,219.45,224.29,221.77Z" transform="translate(-20.82 -5)"/><path class="cls-156" d="M280.73,218a6.26,6.26,0,0,0,.25-1.77q2.83-2.89,5.69-5.78a1,1,0,0,1,1.84.05c3.22,3,8.33.29,11.36,3.79C293.81,217.13,288.33,223.05,280.73,218Z" transform="translate(-20.82 -5)"/><path class="cls-157" d="M316.88,216.16c-6.57,3.68-10.87,14.53-21.84,5.94l20-8.22C316.75,213.75,317.42,214.46,316.88,216.16Z" transform="translate(-20.82 -5)"/><path class="cls-158" d="M356.19,142.37c5-6.07,12.38-3.48,18.6-5.12,2.17,2.79,6.29,3.55,7.55,7.28l-7,0c-3.81-2.35-7.62-3.06-11.43,0C361.17,144.28,358.12,145.33,356.19,142.37Z" transform="translate(-20.82 -5)"/><path class="cls-159" d="M223.62,267.11c4.48-3.78,9.29-6.15,17.71-3.75C234.09,266.3,228.2,264.22,223.62,267.11Z" transform="translate(-20.82 -5)"/><path class="cls-160" d="M173.35,257.31c-1.9,2.58-4.65,2.47-7.41,2.31.56-2.47,4.58-2.32,4.17-5.52,2.24-1.69,2-7.93,7.34-3.95C175.09,252,173.31,254.12,173.35,257.31Z" transform="translate(-20.82 -5)"/><path class="cls-3" d="M316.88,216.16,315,213.88c2.15-2.21,6.37-1.47,7.44-5.21h1.9C328.52,217.79,319.32,213.6,316.88,216.16Z" transform="translate(-20.82 -5)"/><path class="cls-161" d="M363.87,144.52c3.8-6.7,7.62-4.62,11.43,0Z" transform="translate(-20.82 -5)"/><path class="cls-162" d="M262.68,288.46c-4.49,3.55-9.84,5.37-15.05,7.48l-.59-.64c2.42-7.52,7.63-9.64,14.93-7.7A6.49,6.49,0,0,1,262.68,288.46Z" transform="translate(-20.82 -5)"/><path class="cls-82" d="M413,155.82c4.13-4.94,2.86-14.42,12.42-14.82-4.66,5-7.22,11.2-10.22,17.16Z" transform="translate(-20.82 -5)"/><path class="cls-93" d="M414.76,163.16c-.4,6.92,1.51,14-1,20.76C413.73,177,411.5,169.94,414.76,163.16Z" transform="translate(-20.82 -5)"/><path class="cls-163" d="M403,123.85c-4.24-.67-9-1-8.61-5,.72-6.82,7.1-7.58,12.58-8.17,3.9-.42,8.42.43,7.71,5.52C413.69,123.07,406.39,121.2,403,123.85Z" transform="translate(-20.82 -5)"/><path class="cls-164" d="M435.38,108.92c.49.37.92.93,1.46,1.09,4.32,1.26,8.37,3.38,9,8,.34,2.63-3.32,3.56-5.61,3.59-4.83,0-11.05,2.51-12.42-5.49C430,113.44,432,110.45,435.38,108.92Z" transform="translate(-20.82 -5)"/><path class="cls-165" d="M416.59,129.34a14.13,14.13,0,0,1,7.72-4c-3.61,6.33-8.88,10.37-16.49,11.31Z" transform="translate(-20.82 -5)"/><path class="cls-166" d="M379.19,106.93c.6-.64,1.21-1.27,1.81-1.9,4.51-.26,6.32-4.73,11.32-7.31-2.29,6-6.16,8.9-9.82,11.69C380.21,111.15,379.4,109,379.19,106.93Z" transform="translate(-20.82 -5)"/><path class="cls-167" d="M429.1,106.73c-3.83,1-5.91,6.82-12,3.78C421.06,107.36,424.15,104.53,429.1,106.73Z" transform="translate(-20.82 -5)"/><path class="cls-168" d="M386.57,135.6c3-3.35,7-3,9-6C393.35,137.39,393.35,137.39,386.57,135.6Z" transform="translate(-20.82 -5)"/><path class="cls-169" d="M179.18,310.28l2.13.6c-5,5.82-5.59,13.31-7.54,20.28-4.82-1.35-9.57-2.63-14.51-.13-1.77.89-4.37,2.07-4.66-1.78,6.19-4.29,10.89-10.1,16-15.51C172.94,311.22,175.27,308.86,179.18,310.28Z" transform="translate(-20.82 -5)"/><path class="cls-170" d="M120.47,378.21l-3.64.77c5-8,14.3-9.82,21.27-15.07C133.79,370.61,126.05,373.1,120.47,378.21Z" transform="translate(-20.82 -5)"/><path class="cls-171" d="M201.78,293.4c7.31-10.37,16.5-17.08,30-15.09,5.68.83,11.42-1.74,17,.46.37,1.45-.4,2.45-1.3,3.41-4.79,4.19-9,9-13.69,13.26a16.77,16.77,0,0,1-2,1.52c-6.23,3.46-11.77,7.73-15.84,13.7a13.28,13.28,0,0,1-1.91,1.68c-3.23,2-6.2,4.67-10.36,4.61-11.31-.16-12.41-1.88-7.81-11.84C197.71,301.14,200,297.38,201.78,293.4Z" transform="translate(-20.82 -5)"/><path class="cls-172" d="M201.78,293.4c.44,5.58-3.41,9.78-4.8,14.78-.52,1.9-3.25,3.29-1.61,5.69,2,3,4.1,1,6.33-.07,1.67-.82,1.77.91,1.93,2.08,4.69.91,7.22-1.92,9.35-5.42l1.84-.13a3.55,3.55,0,0,1,2.71,1.75,1.63,1.63,0,0,1-.65,1.9c-5.39,7.15-14.28,9.57-20.73,15.29-6.68-.38-11.27,5.08-18.08,6.43-1.76-6.37-.53-13.51,3.19-17.14C189.14,310.87,194.05,301,201.78,293.4Z" transform="translate(-20.82 -5)"/><path class="cls-173" d="M216.88,314l-.06-1.76c-2.08-5.36,2.72-7.22,5.47-9.56,3.07-2.6,6.41-5,9.72-7.36l-.08.06c5.94-4.24,10.8-9.57,15.4-15.18l1.49-1.41c3.5-2,6.93-4.17,10.52-6,3.24-1.65,6.88-2.33,9.33,1,2.62,3.57.1,6.36-2.4,8.93-1.51,1.55-2.87,3.25-4.29,4.88-5.68,1.22-11.1,2.92-14.94,7.7-7.13,1.55-13,4.9-17,11.26C224.52,307,221.64,312.16,216.88,314Z" transform="translate(-20.82 -5)"/><path class="cls-174" d="M425.88,167.38c-4.45-18.21,5.7-29.36,26.23-29-4.78,6.06-12.1,7.55-17.71,11.58C428.27,154.31,424.91,159.54,425.88,167.38Z" transform="translate(-20.82 -5)"/><path class="cls-175" d="M102.32,386.67c-2.61,4.79-6.36,7.69-12,7.4Z" transform="translate(-20.82 -5)"/><path class="cls-176" d="M68.2,405.64c-1.84,3.14-3.41,6.83-8.78,6.13C61.46,407.75,65.15,407.1,68.2,405.64Z" transform="translate(-20.82 -5)"/><path class="cls-177" d="M121.63,300.47c6.07-.47,8.71,2.93,10.24,7.76Q126.76,304.34,121.63,300.47Z" transform="translate(-20.82 -5)"/><path class="cls-178" d="M155.16,288c10.38,1.51,18.75-5.49,28.94-7.86-5.62,13.87-13.24,16-30.9,9.71Z" transform="translate(-20.82 -5)"/><path class="cls-179" d="M141.46,276.33l3.69.41c-1.17,5.05-5.64,4.35-9.18,5.26-3.32-.61-6.62-1.29-10-1.81s-5.32-1.8-3.23-5.49l5.49-.15C133,272.56,137.37,273.51,141.46,276.33Z" transform="translate(-20.82 -5)"/><path class="cls-180" d="M137.74,261.41c-4.68.28-6.56,5.83-11.3,6-1.06-.33-3.17-1.1-2.54-1.64C127.8,262.41,131.48,257.54,137.74,261.41Z" transform="translate(-20.82 -5)"/><path class="cls-181" d="M136,282l9.19-5.26c2.73-.44,5.46-1.13,8.76.24-2.39,2.95-6.67.79-8.65,3.57C142.19,281.15,139.67,285.42,136,282Z" transform="translate(-20.82 -5)"/><path class="cls-182" d="M181.07,80C192.21,74.7,199.57,62.9,213,61.44c6.38-5.53,13-1.8,19.2.1a29.25,29.25,0,0,1,7.45,3.74l.09,0c-.24,2.82-.42,5.62,1.1,8.22s2.41,5.59-.93,7.23c-3,1.45-4.89,5.91-9.7,3.08-2.8-1.64-6.52-1.69-9.8-2.54-8.45-2.19-14,.51-16,10.84-4.53-7.67-11.09-8-18-8C184,84.11,179.12,86.18,181.07,80Z" transform="translate(-20.82 -5)"/><path class="cls-183" d="M235.58,127.32a12.14,12.14,0,0,0,1.89-9.09l5.67-5.73c2.37-5.73,5.31-11.2,7.67-16.94l-.09-6c-3.44-4.27-1.17-10.68-5.48-14.62-1.17-2.35-2.25-4.73-2-7.46,7.44,5.75,15.35,12.23,13.69,22.4C254.54,104.66,251.6,120,235.58,127.32Z" transform="translate(-20.82 -5)"/><path class="cls-184" d="M245.24,75c7.26,2.84,4.68,9.36,5.49,14.62-1.42.84-3.2,5.91-4.07-.23C246,84.59,245.7,79.77,245.24,75Z" transform="translate(-20.82 -5)"/><path class="cls-185" d="M230,121.75c3.46,3.52-.27,3.5-2.17,4.38-3.12,1.87-5.95,4.36-11.21,4.82C219.46,124.4,226.34,125.26,230,121.75Z" transform="translate(-20.82 -5)"/><path class="cls-186" d="M250.81,95.56a24.17,24.17,0,0,1-7.67,16.94C242.6,105.45,246.35,100.35,250.81,95.56Z" transform="translate(-20.82 -5)"/><path class="cls-187" d="M288.51,210.47h-.92l-.92-.06c-4.18-1.42-6.94-2-12.08,1-5.57,3.26-15.11,2.78-22.46-.83-2.3-1.13-4.44-2.16-7-2l-3.66-3.65c1.26-6.49-4.6-11.47-3.77-17.87.46-3.55-1.27-7.47,1.78-10.59,3.79,5.2,2.69,12,5.79,17.51,1.83,3.27,3,6.87,6.44,8.88,3.25,2,7.1,1.31,10.58,2.28,4.82,1.84,9.37.37,13.65-1.6,10.87-5,21.81-9.51,34.19-8,2.57-.22,5.1-.28,7,2l-.45,3.58c-6.7,5.49-14.89,3.44-21.16,5,1.79.7,5.39-1.35,8.33.93C299.35,210.79,292.93,206.34,288.51,210.47Z" transform="translate(-20.82 -5)"/><path class="cls-188" d="M239.61,65.28c-6.24.93-10.77-4.06-16.7-4.81-3.62-.46-6.73-.47-9.95,1l-1.79-3.34L232,57.32C232.69,61.73,238.19,61.55,239.61,65.28Z" transform="translate(-20.82 -5)"/><path class="cls-189" d="M175.43,231.23c1.11-6.35,7-5.59,11.11-7.5C184.18,228.23,180.28,230.43,175.43,231.23Z" transform="translate(-20.82 -5)"/><path class="cls-127" d="M144.62,229.58c-.4,1.77-1.39,2.94-3.11,2.9-2.15-.06-3.28-1.56-3.48-3.57-.17-1.78.68-3.13,2.66-2.51C142.34,226.91,144.36,227.33,144.62,229.58Z" transform="translate(-20.82 -5)"/><path class="cls-190" d="M317.1,197.41l-7.79-.11c-10.3-2.21-19.79-.11-28.73,5.25a31.83,31.83,0,0,1-10.65,3.61c-6.24-1.61-12.76.89-19-1.28-10.45-6.81-11.23-17.53-11.49-28.46.71-11.25,7-19.35,15-26.47,4.24,10.5-3.69,17.32-7.58,25.78,4.69-8.34,10.9-8.46,19.83-7.28,10.5,1.4,21.59-3.06,32.46-2.15s20.92-3.11,31.41-4.12c.79.35.31,3.14,2.1,1.39a7.07,7.07,0,0,0,1.86-6.89c-.46-2.27.33-4.61-.44-6.86-.4-1.8-1.71-3.6,0-5.4,8.74,4.82,6.87,13.8,4.24,19.4C332.74,175.74,326,187.38,317.1,197.41Z" transform="translate(-20.82 -5)"/><path class="cls-191" d="M335.64,150.15c2.26,1.82-.58,3.67,0,5.5-2.45,2.26-.61,7.43-5.46,8.06-15.07,6.19-31,5.14-46.71,5.24-3.91,0-7.35,1.43-10.9,2.55-3.07,1-5.58,1.66-8.74-.57-6.73-4.77-11-.39-14.23,5.11-.94,1.59,1.34,4.62-2,5.39-1.38.33-2.14-.8-2.82-1.93-1.63-2.7-2-5.36.47-7.67,6.41-5.92,8.16-13.73,9.16-21.88,14.11-19.34,34-22.64,56-20.15a8.34,8.34,0,0,1,6.37,3.56,5.28,5.28,0,0,1,1.62,3.08c4.32,4,7.3,9.3,12.73,12C332.84,148.53,334.45,148.78,335.64,150.15Z" transform="translate(-20.82 -5)"/><path class="cls-192" d="M317.05,136.68l-.24-3.32c8.82-1.09,13.37,4.47,17.27,11.06l1.56,5.73-5.47-.16C325.87,145.47,322,140.57,317.05,136.68Z" transform="translate(-20.82 -5)"/><path class="cls-193" d="M303.82,206.89l-12-.55,24.8-5.35,4.6.31C317.11,208.38,309.16,203.57,303.82,206.89Z" transform="translate(-20.82 -5)"/><path class="cls-194" d="M130.44,272.47c3.68-5.65,11.13-2.82,15.64-6.9.88-.8,2.93.54,3.82,2,1,1.67.08,2.93-.92,4.19-1.94,2.45-4.57,3.12-7.53,3A12.62,12.62,0,0,1,130.44,272.47Z" transform="translate(-20.82 -5)"/><path class="cls-114" d="M130.44,272.47c3.91-.42,7.39,1.28,11,2.26,0,.54,0,1.07,0,1.6-4.58.79-8.87-.61-13.18-1.78Z" transform="translate(-20.82 -5)"/><path class="cls-195" d="M232,295.3c-3.16,7.35-13.54,8.22-15.19,16.92l-2-1.89C217.74,302.1,224.59,298.37,232,295.3Z" transform="translate(-20.82 -5)"/><path class="cls-196" d="M247.33,280.18c-3,7.2-8,12.45-15.4,15.18C236.48,289.71,241.12,284.15,247.33,280.18Z" transform="translate(-20.82 -5)"/><path class="cls-197" d="M213,310.46c-1.78,6.91-8.16,8-13.59,11.45.16-3.67,2.68-4.47,4.24-6Z" transform="translate(-20.82 -5)"/><path class="cls-198" d="M253.58,283.45c2.19-3.74,4.24-6.62,11.34-6.81C260.23,280,259.22,284.25,253.58,283.45Z" transform="translate(-20.82 -5)"/><path class="cls-199" d="M269.57,204.76a37.49,37.49,0,0,0,14.79-5.55c8.06-5.4,16.36-4.9,24.95-1.91-14.25-.64-26.46,6-39.2,10.83-2.5,1-5.54,1.38-7.86-1.08C264.09,204.37,266.82,204.52,269.57,204.76Z" transform="translate(-20.82 -5)"/><path class="cls-200" d="M269.57,204.76l-7.32,2.29c-3.74-.85-8,1.25-11.29-2.17C257.18,206.41,263.34,201.06,269.57,204.76Z" transform="translate(-20.82 -5)"/><path class="cls-201" d="M330.21,163.71c3.82-1.33-2.38-9.45,5.46-8.06,5.19,6.3-1.27,11.38-4.15,12.48C326.27,170.13,331.63,165.09,330.21,163.71Z" transform="translate(-20.82 -5)"/><path class="cls-191" d="M312.89,176.76c-1.31,4.69-3.07,7.08-7,6.88-.53,0-1.56-1.37-1.42-1.82C305.47,178.4,308.48,177.77,312.89,176.76Z" transform="translate(-20.82 -5)"/><path class="cls-202" d="M317.05,136.68c7.12,1.73,9.55,8.07,13.12,13.31C323.77,147.55,320.63,141.89,317.05,136.68Z" transform="translate(-20.82 -5)"/></svg>